SplineFontDB: 3.2
FontName: Kende
FullName: Kende
FamilyName: Kende
Weight: Book
Copyright: Copyright (c) 2021, Viktor Kovacs
Version: 001.000
ItalicAngle: 0
UnderlinePosition: -408
UnderlineWidth: 102
Ascent: 1638
Descent: 410
InvalidEm: 0
sfntRevision: 0x00010000
LayerCount: 2
Layer: 0 1 "Back" 1
Layer: 1 1 "Fore" 0
XUID: [1021 113 719581311 13039508]
StyleMap: 0x0040
FSType: 0
OS2Version: 4
OS2_WeightWidthSlopeOnly: 0
OS2_UseTypoMetrics: 1
CreationTime: 1545818743
ModificationTime: 1656850212
PfmFamily: 17
TTFWeight: 400
TTFWidth: 5
LineGap: 184
VLineGap: 0
Panose: 2 0 5 3 0 0 0 0 0 0
OS2TypoAscent: 1638
OS2TypoAOffset: 0
OS2TypoDescent: -410
OS2TypoDOffset: 0
OS2TypoLinegap: 184
OS2WinAscent: 1640
OS2WinAOffset: 0
OS2WinDescent: 163
OS2WinDOffset: 0
HheadAscent: 1640
HheadAOffset: 0
HheadDescent: -163
HheadDOffset: 0
OS2SubXSize: 1331
OS2SubYSize: 1433
OS2SubXOff: 0
OS2SubYOff: 286
OS2SupXSize: 1331
OS2SupYSize: 1433
OS2SupXOff: 0
OS2SupYOff: 983
OS2StrikeYSize: 102
OS2StrikeYPos: 530
OS2Vendor: 'knde'
OS2CodePages: 00000001.00000000
OS2UnicodeRanges: 80000001.02000000.00000000.00000000
Lookup: 4 0 0 "liga" { "liga-1"  } []
Lookup: 4 0 0 "'dlig' Discretionary Ligatures in Old Hungarian lookup 0" { "'dlig' Discretionary Ligatures in Old Hungarian lookup 0-1"  } ['dlig' ('DFLT' <'dflt' > 'hung' <'dflt' > ) ]
Lookup: 4 1 1 "'liga' Standard Ligatures in Old Hungarian lookup 0" { "'liga' Standard Ligatures in Old Hungarian lookup 0 subtable"  "'liga' Standard Ligatures in Old Hungarian lookup 0-1"  } ['liga' ('DFLT' <'dflt' > 'hung' <'dflt' > ) ]
MarkAttachClasses: 1
DEI: 91125
ShortTable: cvt  2
  68
  1297
EndShort
ShortTable: maxp 16
  1
  0
  140
  99
  5
  0
  0
  2
  0
  1
  1
  0
  64
  46
  0
  0
EndShort

StartChar: .notdef
Encoding: 125 -1 0
Width: 748
Flags: W
LayerCount: 2
Fore
SplineSet
68 0 m 1,0,-1
 68 1365 l 1,1,-1
 612 1365 l 1,2,-1
 612 0 l 1,3,-1
 68 0 l 1,0,-1
136 68 m 1,4,-1
 544 68 l 1,5,-1
 544 1297 l 1,6,-1
 136 1297 l 1,7,-1
 136 68 l 1,4,-1
EndSplineSet
Validated: 1
EndChar

StartChar: exclam
Encoding: 1 33 2
Width: 255
GlyphClass: 2
Flags: W
LayerCount: 2
Fore
SplineSet
32 395 m 1,0,-1
 32 1409 l 1,1,-1
 223 1409 l 1,2,-1
 223 393 l 1,3,-1
 32 395 l 1,0,-1
223 185 m 1,4,-1
 223 0 l 1,5,-1
 32 0 l 1,6,-1
 32 183 l 1,7,-1
 223 185 l 1,4,-1
EndSplineSet
Validated: 1
EndChar

StartChar: quotedbl
Encoding: 2 34 3
Width: 617
GlyphClass: 2
Flags: W
LayerCount: 2
Fore
SplineSet
563 966 m 1,0,-1
 421 966 l 1,1,-1
 401 1409 l 1,2,-1
 585 1409 l 1,3,-1
 563 966 l 1,0,-1
194 966 m 1,4,-1
 53 966 l 1,5,-1
 32 1409 l 1,6,-1
 216 1409 l 1,7,-1
 194 966 l 1,4,-1
EndSplineSet
Validated: 1
EndChar

StartChar: hyphen
Encoding: 3 45 4
Width: 564
GlyphClass: 2
Flags: W
LayerCount: 2
Fore
SplineSet
32 464 m 1,0,-1
 32 624 l 1,1,-1
 532 624 l 1,2,-1
 532 464 l 1,3,-1
 32 464 l 1,0,-1
EndSplineSet
Validated: 1
EndChar

StartChar: period
Encoding: 4 46 5
Width: 255
GlyphClass: 2
Flags: W
LayerCount: 2
Fore
SplineSet
223 185 m 1,0,-1
 223 0 l 1,1,-1
 32 0 l 1,2,-1
 32 183 l 1,3,-1
 223 185 l 1,0,-1
EndSplineSet
Validated: 1
EndChar

StartChar: colon
Encoding: 5 58 6
Width: 254
GlyphClass: 2
Flags: W
LayerCount: 2
Fore
SplineSet
222 995 m 1,0,-1
 222 810 l 1,1,-1
 32 810 l 1,2,-1
 32 993 l 1,3,-1
 222 995 l 1,0,-1
222 185 m 1,4,-1
 222 0 l 1,5,-1
 32 0 l 1,6,-1
 32 183 l 1,7,-1
 222 185 l 1,4,-1
EndSplineSet
Validated: 1
EndChar

StartChar: uni201F
Encoding: 10 8223 11
Width: 596
GlyphClass: 2
Flags: W
LayerCount: 2
Fore
SplineSet
372 1455 m 1,0,-1
 372 1638 l 1,1,-1
 564 1640 l 1,2,-1
 564 1455 l 1,3,-1
 468 1455 l 1,4,-1
 498 1371 l 1,5,-1
 562 1292 l 1,6,-1
 468 1292 l 1,7,-1
 404 1371 l 1,8,-1
 372 1455 l 1,0,-1
32 1454 m 1,9,-1
 32 1637 l 1,10,-1
 224 1639 l 1,11,-1
 224 1454 l 1,12,-1
 128 1454 l 1,13,-1
 158 1370 l 1,14,-1
 222 1291 l 1,15,-1
 128 1291 l 1,16,-1
 64 1370 l 1,17,-1
 32 1454 l 1,9,-1
EndSplineSet
Validated: 1
EndChar

StartChar: ellipsis
Encoding: 11 8230 12
Width: 825
GlyphClass: 2
Flags: W
LayerCount: 2
Fore
SplineSet
793 185 m 1,0,-1
 793 0 l 1,1,-1
 602 0 l 1,2,-1
 602 183 l 1,3,-1
 793 185 l 1,0,-1
513 185 m 1,4,-1
 513 0 l 1,5,-1
 322 0 l 1,6,-1
 322 183 l 1,7,-1
 513 185 l 1,4,-1
223 185 m 1,8,-1
 223 0 l 1,9,-1
 32 0 l 1,10,-1
 32 183 l 1,11,-1
 223 185 l 1,8,-1
EndSplineSet
Validated: 1
EndChar

StartChar: exclamdbl
Encoding: 12 8252 13
Width: 595
GlyphClass: 2
Flags: W
LayerCount: 2
Fore
SplineSet
372 395 m 1,0,-1
 372 1409 l 1,1,-1
 563 1409 l 1,2,-1
 563 393 l 1,3,-1
 372 395 l 1,0,-1
563 185 m 1,4,-1
 563 0 l 1,5,-1
 372 0 l 1,6,-1
 372 183 l 1,7,-1
 563 185 l 1,4,-1
32 395 m 1,8,-1
 32 1409 l 1,9,-1
 223 1409 l 1,10,-1
 223 393 l 1,11,-1
 32 395 l 1,8,-1
223 185 m 1,12,-1
 223 0 l 1,13,-1
 32 0 l 1,14,-1
 32 183 l 1,15,-1
 223 185 l 1,12,-1
EndSplineSet
Validated: 1
EndChar

StartChar: uni204F
Encoding: 13 8271 14
Width: 256
GlyphClass: 2
Flags: W
LayerCount: 2
Fore
SplineSet
32 0 m 1,0,-1
 32 183 l 1,1,-1
 224 185 l 1,2,-1
 224 0 l 1,3,-1
 128 0 l 1,4,-1
 158 -84 l 1,5,-1
 222 -163 l 1,6,-1
 128 -163 l 1,7,-1
 64 -84 l 1,8,-1
 32 0 l 1,0,-1
224 995 m 1,9,-1
 224 810 l 1,10,-1
 32 810 l 1,11,-1
 32 993 l 1,12,-1
 224 995 l 1,9,-1
EndSplineSet
Validated: 1
EndChar

StartChar: uni2E2E
Encoding: 14 11822 15
Width: 1043
GlyphClass: 2
Flags: W
LayerCount: 2
Fore
SplineSet
652 185 m 1,0,-1
 652 0 l 1,1,-1
 457 0 l 1,2,-1
 457 183 l 1,3,-1
 652 185 l 1,0,-1
32 1032 m 0,4,5
 32 1219 32 1219 160 1324 c 0,6,7
 289 1430 289 1430 511 1430 c 0,8,9
 725 1430 725 1430 855 1324 c 0,10,11
 986 1217 986 1217 1011 1020 c 1,12,-1
 827 1008 l 1,13,14
 814 1130 814 1130 731 1200 c 0,15,16
 649 1270 649 1270 509 1270 c 0,17,18
 370 1270 370 1270 292 1204 c 128,-1,19
 214 1138 214 1138 214 1024 c 0,20,21
 214 964 214 964 232 921 c 128,-1,22
 250 878 250 878 281 842 c 0,23,24
 313 805 313 805 350 778 c 0,25,26
 391 748 391 748 428 722 c 128,-1,27
 465 696 465 696 507 662 c 0,28,29
 545 632 545 632 577 590 c 0,30,31
 609 549 609 549 628 498 c 0,32,33
 648 445 648 445 649 377 c 1,34,-1
 456 377 l 1,35,36
 454 462 454 462 430 502 c 0,37,38
 389 570 389 570 331 612 c 2,39,-1
 251 671 l 2,40,41
 159 738 159 738 117 789 c 0,42,43
 77 838 77 838 54 898 c 0,44,45
 32 955 32 955 32 1032 c 0,4,5
EndSplineSet
Validated: 1
EndChar

StartChar: uni2E41
Encoding: 15 11841 16
Width: 255
GlyphClass: 2
Flags: W
LayerCount: 2
Fore
SplineSet
32 0 m 1,0,-1
 32 183 l 1,1,-1
 223 185 l 1,2,-1
 223 0 l 1,3,-1
 128 0 l 1,4,-1
 158 -84 l 1,5,-1
 222 -163 l 1,6,-1
 127 -163 l 1,7,-1
 63 -84 l 1,8,-1
 32 0 l 1,0,-1
EndSplineSet
Validated: 1
EndChar

StartChar: uni2E42
Encoding: 16 11842 17
Width: 596
GlyphClass: 2
Flags: W
LayerCount: 2
Fore
SplineSet
372 1 m 1,0,-1
 372 184 l 1,1,-1
 564 186 l 1,2,-1
 564 1 l 1,3,-1
 468 1 l 1,4,-1
 498 -83 l 1,5,-1
 562 -162 l 1,6,-1
 468 -162 l 1,7,-1
 404 -83 l 1,8,-1
 372 1 l 1,0,-1
32 0 m 1,9,-1
 32 183 l 1,10,-1
 224 185 l 1,11,-1
 224 0 l 1,12,-1
 128 0 l 1,13,-1
 158 -84 l 1,14,-1
 222 -163 l 1,15,-1
 128 -163 l 1,16,-1
 64 -84 l 1,17,-1
 32 0 l 1,9,-1
EndSplineSet
Validated: 1
EndChar

StartChar: u10C80
Encoding: 17 68736 18
Width: 1209
GlyphClass: 2
Flags: W
LayerCount: 2
Fore
SplineSet
941 1409 m 5,0,-1
 936 0 l 5,1,-1
 745 0 l 5,2,-1
 744 629 l 5,3,-1
 33 627 l 5,4,-1
 32 772 l 5,5,-1
 750 1409 l 5,6,-1
 941 1409 l 5,0,-1
748 781 m 5,7,-1
 748 1217 l 5,8,-1
 252 778 l 5,9,-1
 748 781 l 5,7,-1
EndSplineSet
Validated: 1
EndChar

StartChar: u10C81
Encoding: 18 68737 19
Width: 1139
GlyphClass: 2
Flags: W
LayerCount: 2
Fore
SplineSet
871 1409 m 1,0,-1
 866 0 l 1,1,-1
 675 0 l 1,2,-1
 674 629 l 1,3,-1
 33 927 l 1,4,-1
 32 1072 l 1,5,-1
 680 1409 l 1,6,-1
 871 1409 l 1,0,-1
678 781 m 1,7,-1
 678 1257 l 1,8,-1
 212 1018 l 1,9,-1
 678 781 l 1,7,-1
EndSplineSet
Validated: 1
EndChar

StartChar: u10C82
Encoding: 19 68738 20
Width: 1297
GlyphClass: 2
Flags: W
LayerCount: 2
Fore
SplineSet
1076 0 m 1,0,-1
 653 616 l 1,1,-1
 221 0 l 1,2,-1
 10 0 l 1,3,-1
 546 732 l 1,4,-1
 51 1409 l 1,5,-1
 262 1409 l 1,6,-1
 654 856 l 1,7,-1
 1035 1409 l 1,8,-1
 1246 1409 l 1,9,-1
 764 739 l 1,10,-1
 1287 0 l 1,11,-1
 1076 0 l 1,0,-1
EndSplineSet
Validated: 1
EndChar

StartChar: u10C83
Encoding: 20 68739 21
Width: 2175
GlyphClass: 2
Flags: W
LayerCount: 2
Fore
SplineSet
990 -1 m 1,0,1
 918 45 918 45 855 91.5 c 128,-1,2
 792 138 792 138 738 185 c 1,3,-1
 404 1 l 1,4,-1
 153 207 l 1,5,-1
 274 330 l 1,6,-1
 443 188 l 1,7,-1
 630 296 l 1,8,9
 554 386 554 386 513 486 c 128,-1,10
 472 586 472 586 472 702 c 0,11,12
 472 819 472 819 513 920 c 128,-1,13
 554 1021 554 1021 630 1112 c 1,14,-1
 423 1218 l 1,15,-1
 234 985 l 1,16,-1
 113 1091 l 1,17,-1
 384 1405 l 1,18,-1
 738 1221 l 1,19,20
 791 1269 791 1269 855 1315.5 c 128,-1,21
 919 1362 919 1362 988 1407 c 1,22,-1
 1181 1407 l 1,23,24
 1253 1362 1253 1362 1314 1317 c 128,-1,25
 1375 1272 1375 1272 1429 1225 c 1,26,-1
 1777 1405 l 1,27,-1
 2062 1141 l 1,28,-1
 1947 1025 l 1,29,-1
 1750 1228 l 1,30,-1
 1537 1115 l 1,31,32
 1615 1023 1615 1023 1656 921.5 c 128,-1,33
 1697 820 1697 820 1697 702 c 0,34,35
 1697 585 1697 585 1656 483.5 c 128,-1,36
 1615 382 1615 382 1537 291 c 1,37,-1
 1730 188 l 1,38,-1
 1907 380 l 1,39,-1
 2042 277 l 1,40,-1
 1767 1 l 1,41,-1
 1429 181 l 1,42,43
 1376 135 1376 135 1314 89.5 c 128,-1,44
 1252 44 1252 44 1181 -1 c 1,45,-1
 990 -1 l 1,0,1
1089 118 m 1,46,47
 1230 218 1230 218 1368 402 c 128,-1,48
 1506 586 1506 586 1506 702 c 0,49,50
 1506 819 1506 819 1368 1004.5 c 128,-1,51
 1230 1190 1230 1190 1089 1289 c 1,52,-1
 1080 1289 l 1,53,54
 941 1189 941 1189 802 1004.5 c 128,-1,55
 663 820 663 820 663 702 c 0,56,57
 663 586 663 586 802 402 c 128,-1,58
 941 218 941 218 1080 118 c 1,59,-1
 1089 118 l 1,46,47
EndSplineSet
Validated: 1
EndChar

StartChar: u10C84
Encoding: 21 68740 22
Width: 1461
GlyphClass: 2
Flags: W
LayerCount: 2
Fore
SplineSet
635 1229 m 1,0,-1
 376 993 l 1,1,-1
 150 993 l 1,2,-1
 635 1409 l 1,3,-1
 826 1410 l 1,4,-1
 1311 994 l 1,5,-1
 1085 994 l 1,6,-1
 826 1230 l 1,7,-1
 826 0 l 1,8,-1
 635 0 l 1,9,-1
 635 1229 l 1,0,-1
EndSplineSet
Validated: 1
EndChar

StartChar: u10C85
Encoding: 22 68741 23
Width: 1461
GlyphClass: 2
Flags: W
LayerCount: 2
Fore
SplineSet
826 1 m 1,0,-1
 635 1 l 1,1,-1
 150 420 l 1,2,-1
 376 420 l 1,3,-1
 635 184 l 1,4,-1
 635 1229 l 1,5,-1
 376 993 l 1,6,-1
 150 993 l 1,7,-1
 635 1409 l 1,8,-1
 826 1410 l 1,9,-1
 1311 994 l 1,10,-1
 1085 994 l 1,11,-1
 826 1230 l 1,12,-1
 826 183 l 1,13,-1
 1085 419 l 1,14,-1
 1311 419 l 1,15,-1
 826 1 l 1,0,-1
EndSplineSet
Validated: 1
EndChar

StartChar: u10C86
Encoding: 23 68742 24
Width: 1444
GlyphClass: 2
Flags: W
LayerCount: 2
Fore
SplineSet
1103 633 m 1,0,-1
 1103 1203 l 1,1,-1
 341 767 l 1,2,-1
 341 203 l 1,3,-1
 1103 633 l 1,0,-1
1103 1409 m 1,4,-1
 1294 1409 l 1,5,-1
 1294 0 l 1,6,-1
 1103 0 l 1,7,-1
 1103 473 l 1,8,-1
 341 43 l 1,9,-1
 341 0 l 1,10,-1
 150 0 l 1,11,-1
 150 1409 l 1,12,-1
 341 1409 l 1,13,-1
 341 937 l 1,14,-1
 1100 1364 l 1,15,-1
 1103 1409 l 1,4,-1
EndSplineSet
Validated: 1
EndChar

StartChar: u10C87
Encoding: 24 68743 25
Width: 1142
GlyphClass: 2
Flags: W
LayerCount: 2
Fore
SplineSet
655 839 m 1,0,-1
 992 1050 l 1,1,-1
 992 893 l 1,2,-1
 653 681 l 1,3,-1
 649 0 l 1,4,-1
 458 0 l 1,5,-1
 458 586 l 1,6,-1
 150 393 l 1,7,-1
 150 550 l 1,8,-1
 459 750 l 1,9,-1
 458 1409 l 1,10,-1
 649 1409 l 1,11,-1
 655 839 l 1,0,-1
EndSplineSet
Validated: 1
EndChar

StartChar: u10C88
Encoding: 25 68744 26
Width: 1267
GlyphClass: 2
Flags: W
LayerCount: 2
Fore
SplineSet
749 707 m 1,0,-1
 1257 0 l 1,1,-1
 1066 0 l 1,2,-1
 643 616 l 1,3,-1
 211 0 l 1,4,-1
 10 0 l 1,5,-1
 459 625 l 1,6,-1
 63 443 l 1,7,-1
 63 600 l 1,8,-1
 504 785 l 1,9,-1
 51 1409 l 1,10,-1
 252 1409 l 1,11,-1
 644 856 l 1,12,-1
 1025 1409 l 1,13,-1
 1216 1409 l 1,14,-1
 864 903 l 1,15,-1
 1225 1060 l 1,16,-1
 1225 903 l 1,17,-1
 749 707 l 1,0,-1
EndSplineSet
Validated: 1
EndChar

StartChar: u10C89
Encoding: 26 68745 27
Width: 1098
GlyphClass: 2
Flags: W
LayerCount: 2
Fore
SplineSet
177 197 m 1,0,1
 276 197 276 197 306 207 c 0,2,3
 461 256 461 256 505 294 c 1,4,-1
 311 456 l 1,5,-1
 422 569 l 1,6,-1
 614 409 l 1,7,8
 687 516 687 516 706 558 c 0,9,10
 740 632 740 632 740 726 c 0,11,12
 740 883 740 883 624 1032 c 1,13,-1
 428 864 l 1,14,-1
 311 976 l 1,15,-1
 505 1139 l 1,16,17
 424 1200 424 1200 306 1215 c 0,18,19
 251 1222 251 1222 187 1222 c 2,20,-1
 160 1222 l 1,21,-1
 150 1414 l 1,22,23
 342 1405 342 1405 377 1396 c 0,24,25
 517 1360 517 1360 637 1263 c 1,26,-1
 813 1419 l 1,27,-1
 940 1308 l 1,28,-1
 775 1158 l 1,29,30
 931 956 931 956 932 716 c 2,31,-1
 932 709 l 2,32,33
 932 616 932 616 912.5 543.5 c 128,-1,34
 893 471 893 471 863.5 421 c 128,-1,35
 834 371 834 371 773 290 c 1,36,-1
 948 137 l 1,37,-1
 827 12 l 1,38,-1
 659 162 l 1,39,40
 546 72 546 72 377 23 c 0,41,42
 326 8 326 8 187 5 c 1,43,-1
 177 197 l 1,0,1
EndSplineSet
Validated: 1
EndChar

StartChar: u10C8A
Encoding: 27 68746 28
Width: 1200
GlyphClass: 2
Flags: W
LayerCount: 2
Fore
SplineSet
201 103 m 1,0,1
 279 141 279 141 344.5 175.5 c 128,-1,2
 410 210 410 210 465 243 c 1,3,4
 328 350 328 350 268.5 458 c 128,-1,5
 209 566 209 566 209 695 c 256,6,7
 209 824 209 824 267.5 932 c 128,-1,8
 326 1040 326 1040 463 1146 c 1,9,10
 406 1182 406 1182 338 1219 c 128,-1,11
 270 1256 270 1256 190 1295 c 1,12,-1
 315 1400 l 1,13,14
 483 1316 483 1316 600 1244 c 1,15,16
 717 1318 717 1318 885 1400 c 1,17,-1
 1010 1295 l 1,18,19
 930 1256 930 1256 862.5 1219 c 128,-1,20
 795 1182 795 1182 739 1148 c 1,21,22
 874 1041 874 1041 932.5 933.5 c 128,-1,23
 991 826 991 826 991 695 c 0,24,25
 991 566 991 566 932.5 457.5 c 128,-1,26
 874 349 874 349 735 243 c 1,27,28
 790 210 790 210 857 175.5 c 128,-1,29
 924 141 924 141 999 103 c 1,30,-1
 893 -9 l 1,31,32
 809 33 809 33 735.5 72.5 c 128,-1,33
 662 112 662 112 600 150 c 1,34,35
 539 112 539 112 465 72.5 c 128,-1,36
 391 33 391 33 307 -9 c 1,37,-1
 201 103 l 1,0,1
600 335 m 1,38,39
 706 419 706 419 752.5 505.5 c 128,-1,40
 799 592 799 592 799 695 c 0,41,42
 799 799 799 799 754 883 c 128,-1,43
 709 967 709 967 600 1052 c 1,44,45
 491 967 491 967 446 883 c 128,-1,46
 401 799 401 799 401 695 c 256,47,48
 401 591 401 591 447.5 505 c 128,-1,49
 494 419 494 419 600 335 c 1,38,39
EndSplineSet
Validated: 1
EndChar

StartChar: u10C8B
Encoding: 28 68747 29
Width: 1040
GlyphClass: 2
Flags: W
LayerCount: 2
Fore
SplineSet
157 273 m 1,0,1
 415 357 415 357 535.5 438.5 c 128,-1,2
 656 520 656 520 656 620 c 2,3,-1
 656 728 l 2,4,5
 656 875 656 875 558 966.5 c 128,-1,6
 460 1058 460 1058 252 1122 c 1,7,-1
 154 1142 l 1,8,-1
 150 1272 l 1,9,-1
 551 1410 l 1,10,-1
 753 1409 l 1,11,-1
 756 1305 l 1,12,-1
 405 1228 l 1,13,14
 630 1134 630 1134 760 993 c 128,-1,15
 890 852 890 852 890 693 c 0,16,17
 890 590 890 590 771 471.5 c 128,-1,18
 652 353 652 353 425 209 c 1,19,-1
 768 104 l 1,20,-1
 766 0 l 1,21,-1
 564 1 l 1,22,-1
 160 142 l 1,23,-1
 157 273 l 1,0,1
EndSplineSet
Validated: 1
EndChar

StartChar: u10C8C
Encoding: 29 68748 30
Width: 1496
GlyphClass: 2
Flags: W
LayerCount: 2
Fore
SplineSet
726 604 m 1,0,-1
 514 333 l 1,1,2
 548 292 548 292 583 266 c 128,-1,3
 618 240 618 240 666.5 212 c 128,-1,4
 715 184 715 184 751 157 c 1,5,6
 794 188 794 188 856 246.5 c 128,-1,7
 918 305 918 305 960 351 c 1,8,-1
 726 604 l 1,0,-1
648 681 m 1,9,-1
 397 921 l 1,10,11
 378 890 378 890 367.5 867.5 c 128,-1,12
 357 845 357 845 348 807.5 c 128,-1,13
 339 770 339 770 339 729 c 0,14,15
 339 725 339 725 339.5 716.5 c 128,-1,16
 340 708 340 708 340 704 c 0,17,18
 345 610 345 610 362.5 550 c 128,-1,19
 380 490 380 490 423 437 c 1,20,-1
 648 681 l 1,9,-1
712 775 m 1,21,-1
 977 1055 l 1,22,23
 879 1177 879 1177 738 1271 c 1,24,25
 676 1229 676 1229 595 1157.5 c 128,-1,26
 514 1086 514 1086 462 1024 c 1,27,-1
 712 775 l 1,21,-1
804 674 m 1,28,-1
 1045 443 l 1,29,30
 1053 454 1053 454 1076.5 488 c 128,-1,31
 1100 522 1100 522 1108.5 537 c 128,-1,32
 1117 552 1117 552 1131 580.5 c 128,-1,33
 1145 609 1145 609 1150 637.5 c 128,-1,34
 1155 666 1155 666 1155 699 c 0,35,36
 1155 753 1155 753 1136 805.5 c 128,-1,37
 1117 858 1117 858 1099.5 884.5 c 128,-1,38
 1082 911 1082 911 1055 945 c 1,39,-1
 804 674 l 1,28,-1
668 5 m 1,40,41
 398 198 398 198 274 364 c 128,-1,42
 150 530 150 530 150 714 c 0,43,44
 150 896 150 896 270 1061 c 128,-1,45
 390 1226 390 1226 649 1414 c 1,46,-1
 833 1414 l 1,47,48
 1102 1225 1102 1225 1224 1056.5 c 128,-1,49
 1346 888 1346 888 1346 702 c 0,50,51
 1346 517 1346 517 1225.5 354 c 128,-1,52
 1105 191 1105 191 836 5 c 1,53,-1
 668 5 l 1,40,41
EndSplineSet
Validated: 1
EndChar

StartChar: u10C8D
Encoding: 30 68749 31
Width: 1378
GlyphClass: 2
Flags: W
LayerCount: 2
Fore
SplineSet
863 812 m 1,0,-1
 691 1265 l 1,1,-1
 208 0 l 1,2,-1
 10 0 l 1,3,-1
 585 1409 l 1,4,-1
 802 1409 l 1,5,-1
 1368 0 l 1,6,-1
 1173 0 l 1,7,-1
 940 595 l 1,8,-1
 701 0 l 1,9,10
 701 0 701 0 508 0 c 1,11,-1
 863 812 l 1,0,-1
EndSplineSet
Validated: 1
EndChar

StartChar: u10C8E
Encoding: 31 68750 32
Width: 1142
GlyphClass: 2
Flags: W
LayerCount: 2
Fore
SplineSet
654 819 m 1,0,-1
 655 549 l 1,1,-1
 992 760 l 1,2,-1
 992 603 l 1,3,-1
 653 391 l 1,4,-1
 649 0 l 1,5,-1
 458 0 l 1,6,-1
 458 296 l 1,7,-1
 150 103 l 1,8,-1
 150 260 l 1,9,-1
 459 460 l 1,10,-1
 459 727 l 1,11,-1
 150 533 l 1,12,-1
 150 690 l 1,13,-1
 458 891 l 1,14,-1
 458 1409 l 1,15,-1
 649 1409 l 1,16,-1
 651 979 l 1,17,-1
 992 1190 l 1,18,-1
 992 1033 l 1,19,-1
 654 819 l 1,0,-1
EndSplineSet
Validated: 1
EndChar

StartChar: u10C8F
Encoding: 32 68751 33
Width: 1253
GlyphClass: 2
Flags: W
LayerCount: 2
Fore
SplineSet
1023 2 m 1,0,-1
 637 298 l 1,1,-1
 234 2 l 1,2,-1
 151 2 l 1,3,-1
 150 90 l 1,4,-1
 535 379 l 1,5,-1
 207 637 l 1,6,-1
 202 788 l 1,7,-1
 524 987 l 1,8,-1
 153 1240 l 1,9,-1
 153 1405 l 1,10,-1
 214 1405 l 1,11,-1
 642 1070 l 1,12,-1
 1053 1405 l 1,13,-1
 1094 1404 l 1,14,-1
 1098 1241 l 1,15,-1
 760 997 l 1,16,-1
 1090 786 l 1,17,-1
 1094 635 l 1,18,-1
 740 380 l 1,19,-1
 1098 95 l 1,20,-1
 1103 1 l 1,21,-1
 1023 2 l 1,0,-1
942 705 m 1,22,-1
 641 911 l 1,23,-1
 351 700 l 1,24,-1
 641 472 l 1,25,-1
 942 705 l 1,22,-1
EndSplineSet
Validated: 1
EndChar

StartChar: u10C90
Encoding: 33 68752 34
Width: 1142
GlyphClass: 2
Flags: W
LayerCount: 2
Fore
SplineSet
655 1209 m 1,0,-1
 992 1420 l 1,1,-1
 992 1263 l 1,2,-1
 653 1051 l 1,3,-1
 649 0 l 1,4,-1
 458 0 l 1,5,-1
 458 956 l 1,6,-1
 150 763 l 1,7,-1
 150 920 l 1,8,-1
 459 1120 l 1,9,-1
 458 1409 l 1,10,-1
 649 1409 l 1,11,-1
 655 1209 l 1,0,-1
EndSplineSet
Validated: 1
EndChar

StartChar: u10C91
Encoding: 34 68753 35
Width: 1142
GlyphClass: 2
Flags: W
LayerCount: 2
Fore
SplineSet
989 1430 m 1,0,-1
 992 1263 l 1,1,-1
 653 1051 l 1,2,-1
 649 0 l 1,3,-1
 458 0 l 1,4,-1
 458 956 l 1,5,-1
 150 763 l 1,6,-1
 150 920 l 1,7,-1
 989 1430 l 1,0,-1
EndSplineSet
Validated: 1
EndChar

StartChar: u10C92
Encoding: 35 68754 36
Width: 953
GlyphClass: 2
Flags: W
LayerCount: 2
Fore
SplineSet
150 1050 m 1,0,-1
 608 1409 l 1,1,-1
 803 1411 l 1,2,-1
 799 1 l 1,3,-1
 608 1 l 1,4,-1
 608 1236 l 1,5,-1
 150 883 l 1,6,-1
 150 1050 l 1,0,-1
EndSplineSet
Validated: 1
EndChar

StartChar: u10C93
Encoding: 36 68755 37
Width: 1051
GlyphClass: 2
Flags: W
LayerCount: 2
Fore
SplineSet
522 152 m 1,0,-1
 855 718 l 1,1,-1
 522 1258 l 1,2,-1
 197 712 l 1,3,-1
 522 152 l 1,0,-1
619 5 m 1,4,-1
 428 4 l 1,5,-1
 5 711 l 1,6,-1
 422 1413 l 1,7,-1
 613 1414 l 1,8,-1
 1046 718 l 1,9,-1
 619 5 l 1,4,-1
EndSplineSet
Validated: 1
EndChar

StartChar: u10C94
Encoding: 37 68756 38
Width: 1471
GlyphClass: 2
Flags: W
LayerCount: 2
Fore
SplineSet
1321 662 m 1,0,-1
 851 1 l 1,1,-1
 672 2 l 1,2,-1
 660 1206 l 1,3,-1
 341 792 l 1,4,-1
 150 793 l 1,5,-1
 664 1411 l 1,6,-1
 845 1410 l 1,7,-1
 845 203 l 1,8,-1
 1130 660 l 1,9,-1
 1321 662 l 1,0,-1
EndSplineSet
Validated: 1
EndChar

StartChar: u10C95
Encoding: 38 68757 39
Width: 1333
GlyphClass: 2
Flags: W
LayerCount: 2
Fore
SplineSet
275 136 m 1,0,-1
 574 749 l 1,1,-1
 331 1269 l 1,2,-1
 10 944 l 1,3,-1
 10 1129 l 1,4,-1
 259 1409 l 1,5,-1
 426 1409 l 1,6,-1
 676 856 l 1,7,-1
 928 1411 l 1,8,-1
 1095 1411 l 1,9,-1
 1313 1184 l 1,10,-1
 1323 989 l 1,11,-1
 1021 1295 l 1,12,-1
 765 748 l 1,13,-1
 1037 147 l 1,14,-1
 1321 543 l 1,15,-1
 1323 278 l 1,16,-1
 1127 2 l 1,17,-1
 960 2 l 1,18,-1
 661 637 l 1,19,-1
 359 2 l 1,20,-1
 191 2 l 1,21,-1
 10 268 l 1,22,-1
 10 488 l 1,23,-1
 275 136 l 1,0,-1
EndSplineSet
Validated: 1
EndChar

StartChar: u10C96
Encoding: 39 68758 40
Width: 1798
GlyphClass: 2
Flags: W
LayerCount: 2
Fore
SplineSet
891 1265 m 1,0,-1
 208 0 l 1,1,-1
 10 0 l 1,2,-1
 785 1409 l 1,3,-1
 1002 1409 l 1,4,-1
 1788 0 l 1,5,-1
 1590 0 l 1,6,-1
 1370 385 l 1,7,-1
 1147 0 l 1,8,-1
 949 0 l 1,9,-1
 1282 562 l 1,10,-1
 1163 776 l 1,11,-1
 701 0 l 1,12,-1
 503 0 l 1,13,-1
 1051 974 l 1,14,-1
 891 1265 l 1,0,-1
EndSplineSet
Validated: 1
EndChar

StartChar: u10C97
Encoding: 40 68759 41
Width: 1496
GlyphClass: 2
Flags: W
LayerCount: 2
Fore
SplineSet
1076 963 m 1,0,1
 1076 963 1076 963 514 383 c 1,2,3
 572 312 572 312 624.5 262.5 c 128,-1,4
 677 213 677 213 751 157 c 1,5,6
 900 267 900 267 1020 431 c 0,7,8
 1123 573 1123 573 1155 701 c 0,9,10
 1156 705 1156 705 1156 713 c 0,11,12
 1156 818 1156 818 1125 885 c 0,13,14
 1099 940 1099 940 1076 963 c 1,0,1
984 1061 m 1,15,16
 984 1061 984 1061 984 1062 c 0,17,18
 984 1074 984 1074 895 1150 c 256,19,20
 806 1226 806 1226 738 1271 c 1,21,22
 591 1173 591 1173 463.5 1006.5 c 128,-1,23
 336 840 336 840 336 735 c 0,24,25
 336 716 336 716 340 704 c 0,26,27
 342 698 342 698 346.5 680.5 c 128,-1,28
 351 663 351 663 353 656.5 c 128,-1,29
 355 650 355 650 359.5 634.5 c 128,-1,30
 364 619 364 619 367 611.5 c 128,-1,31
 370 604 370 604 375.5 590 c 128,-1,32
 381 576 381 576 386.5 567 c 128,-1,33
 392 558 392 558 399 545 c 128,-1,34
 406 532 406 532 414.5 520.5 c 128,-1,35
 423 509 423 509 433 497 c 1,36,-1
 984 1061 l 1,15,16
668 5 m 1,37,38
 398 198 398 198 274 364 c 128,-1,39
 150 530 150 530 150 714 c 0,40,41
 150 896 150 896 270 1061 c 128,-1,42
 390 1226 390 1226 649 1414 c 1,43,-1
 833 1414 l 1,44,45
 1102 1225 1102 1225 1224 1056.5 c 128,-1,46
 1346 888 1346 888 1346 702 c 0,47,48
 1346 517 1346 517 1225.5 354 c 128,-1,49
 1105 191 1105 191 836 5 c 1,50,-1
 668 5 l 1,37,38
EndSplineSet
Validated: 1
EndChar

StartChar: u10C98
Encoding: 41 68760 42
Width: 1109
GlyphClass: 2
Flags: W
LayerCount: 2
Fore
SplineSet
763 -1 m 1,0,-1
 151 257 l 1,1,-1
 151 419 l 1,2,-1
 662 681 l 1,3,-1
 151 937 l 1,4,-1
 150 1082 l 1,5,-1
 768 1409 l 1,6,-1
 959 1409 l 1,7,-1
 954 0 l 1,8,-1
 763 -1 l 1,0,-1
763 144 m 1,9,-1
 762 579 l 1,10,-1
 312 342 l 1,11,-1
 763 144 l 1,9,-1
766 781 m 1,12,-1
 766 1257 l 1,13,-1
 300 1018 l 1,14,-1
 766 781 l 1,12,-1
EndSplineSet
Validated: 1
EndChar

StartChar: u10C99
Encoding: 42 68761 43
Width: 912
GlyphClass: 2
Flags: W
LayerCount: 2
Fore
SplineSet
150 189 m 1,0,1
 240 199 240 199 272 210 c 0,2,3
 445 267 445 267 550 389 c 0,4,5
 635 488 635 488 671.5 558 c 128,-1,6
 708 628 708 628 709 728 c 0,7,8
 709 815 709 815 668.5 891 c 128,-1,9
 628 967 628 967 550 1044 c 0,10,11
 460 1134 460 1134 272 1193 c 0,12,13
 194 1218 194 1218 162 1218 c 1,14,-1
 150 1409 l 1,15,16
 242 1405 242 1405 340 1381 c 0,17,18
 553 1326 553 1326 676 1201 c 0,19,20
 792 1085 792 1085 847 973 c 128,-1,21
 902 861 902 861 902 731 c 0,22,23
 902 596 902 596 850 488 c 128,-1,24
 798 380 798 380 676 234 c 0,25,26
 557 89 557 89 347 32 c 0,27,28
 256 7 256 7 150 0 c 1,29,-1
 150 189 l 1,0,1
EndSplineSet
Validated: 1
EndChar

StartChar: u10C9A
Encoding: 43 68762 44
Width: 1045
GlyphClass: 2
Flags: W
LayerCount: 2
Fore
SplineSet
313 3 m 1,0,-1
 150 3 l 1,1,-1
 150 1412 l 1,2,-1
 313 1412 l 1,3,4
 431 1401 431 1401 525 1379 c 0,5,6
 728 1330 728 1330 856 1201 c 0,7,8
 950 1108 950 1108 992.5 1016.5 c 128,-1,9
 1035 925 1035 925 1035 797 c 2,10,-1
 1035 758 l 1,11,-1
 1035 748 l 2,12,13
 1035 581 1035 581 992.5 466.5 c 128,-1,14
 950 352 950 352 859 248 c 0,15,16
 728 99 728 99 527 47 c 1,17,18
 431 12 431 12 313 3 c 1,0,-1
341 193 m 1,19,20
 390 197 390 197 465 222 c 0,21,22
 634 276 634 276 714 370 c 0,23,24
 781 447 781 447 812 534 c 128,-1,25
 843 621 843 621 843 743 c 0,26,27
 843 848 843 848 811.5 926 c 128,-1,28
 780 1004 780 1004 714 1068 c 0,29,30
 628 1152 628 1152 465 1196 c 0,31,32
 386 1217 386 1217 341 1221 c 1,33,-1
 341 193 l 1,19,20
EndSplineSet
Validated: 1
EndChar

StartChar: u10C9B
Encoding: 44 68763 45
Width: 1399
GlyphClass: 2
Flags: W
LayerCount: 2
Fore
SplineSet
500 198 m 1,0,1
 585 207 585 207 622 219 c 0,2,3
 692 242 692 242 736 259 c 128,-1,4
 780 276 780 276 832.5 308 c 128,-1,5
 885 340 885 340 919 378 c 0,6,7
 992 461 992 461 1024.5 542 c 128,-1,8
 1057 623 1057 623 1057 715 c 2,9,-1
 1057 716 l 1,10,-1
 1057 717 l 2,11,12
 1057 831 1057 831 1024.5 916 c 128,-1,13
 992 1001 992 1001 919 1073 c 0,14,15
 909 1083 909 1083 897.5 1092 c 128,-1,16
 886 1101 886 1101 875.5 1108 c 128,-1,17
 865 1115 865 1115 848.5 1123 c 128,-1,18
 832 1131 832 1131 821.5 1136 c 128,-1,19
 811 1141 811 1141 790 1148.5 c 128,-1,20
 769 1156 769 1156 759.5 1160 c 128,-1,21
 750 1164 750 1164 725.5 1171.5 c 128,-1,22
 701 1179 701 1179 692.5 1181.5 c 128,-1,23
 684 1184 684 1184 656.5 1192 c 128,-1,24
 629 1200 629 1200 622 1202 c 0,25,26
 571 1217 571 1217 523 1217 c 2,27,-1
 514 1217 l 1,28,-1
 510 1217 l 2,29,30
 508 1216 508 1216 507 1218.5 c 128,-1,31
 506 1221 506 1221 506 1227 c 1,32,-1
 342 986 l 1,33,-1
 150 988 l 1,34,-1
 390 1410 l 1,35,36
 641 1393 641 1393 689 1382 c 0,37,38
 926 1322 926 1322 1034 1213 c 0,39,40
 1148 1099 1148 1099 1198.5 983 c 128,-1,41
 1249 867 1249 867 1249 717 c 2,42,-1
 1249 716 l 2,43,44
 1249 593 1249 593 1197.5 475 c 128,-1,45
 1146 357 1146 357 1034 223 c 0,46,47
 974 151 974 151 890.5 109.5 c 128,-1,48
 807 68 807 68 696 42 c 0,49,50
 574 14 574 14 391 1 c 1,51,-1
 170 406 l 1,52,-1
 364 407 l 1,53,-1
 500 198 l 1,0,1
EndSplineSet
Validated: 1
EndChar

StartChar: u10C9C
Encoding: 45 68764 46
Width: 1409
GlyphClass: 2
Flags: W
LayerCount: 2
Fore
SplineSet
510 200 m 1,0,1
 515 201 515 201 526 201 c 0,2,3
 531 201 531 201 541.5 200.5 c 128,-1,4
 552 200 552 200 558 200 c 0,5,6
 598 200 598 200 632 211 c 0,7,8
 827 275 827 275 919 380 c 0,9,10
 1067 549 1067 549 1067 758 c 0,11,12
 1067 932 1067 932 919 1077 c 0,13,14
 892 1104 892 1104 846.5 1127 c 128,-1,15
 801 1150 801 1150 768 1161.5 c 128,-1,16
 735 1173 735 1173 660 1197 c 0,17,18
 654 1199 654 1199 650.5 1200 c 128,-1,19
 647 1201 647 1201 641.5 1203 c 128,-1,20
 636 1205 636 1205 632 1206 c 0,21,22
 584 1221 584 1221 533 1221 c 2,23,-1
 522 1221 l 1,24,-1
 506 1221 l 1,25,-1
 352 1030 l 1,26,-1
 160 1032 l 1,27,-1
 400 1414 l 1,28,29
 651 1397 651 1397 699 1386 c 0,30,31
 909 1333 909 1333 1034 1207 c 0,32,33
 1152 1088 1152 1088 1205.5 986.5 c 128,-1,34
 1259 885 1259 885 1259 758 c 0,35,36
 1259 620 1259 620 1205.5 503 c 128,-1,37
 1152 386 1152 386 1034 245 c 0,38,39
 905 90 905 90 706 44 c 0,40,41
 597 19 597 19 401 5 c 1,42,-1
 150 458 l 1,43,-1
 640 698 l 1,44,-1
 715 539 l 1,45,-1
 414 399 l 1,46,-1
 510 200 l 1,0,1
EndSplineSet
Validated: 1
EndChar

StartChar: u10C9D
Encoding: 46 68765 47
Width: 892
GlyphClass: 2
Flags: W
LayerCount: 2
Fore
SplineSet
289 1409 m 1,0,-1
 731 1011 l 1,1,-1
 342 460 l 1,2,-1
 742 123 l 1,3,-1
 653 -4 l 1,4,-1
 150 455 l 1,5,-1
 538 1001 l 1,6,-1
 200 1303 l 1,7,-1
 289 1409 l 1,0,-1
EndSplineSet
Validated: 1
EndChar

StartChar: u10C9E
Encoding: 47 68766 48
Width: 1055
GlyphClass: 2
Flags: W
LayerCount: 2
Fore
SplineSet
341 873 m 1,0,-1
 740 1409 l 1,1,-1
 965 1409 l 1,2,-1
 465 797 l 1,3,-1
 1045 0 l 1,4,-1
 808 0 l 1,5,-1
 341 680 l 1,6,-1
 341 0 l 1,7,-1
 150 0 l 1,8,-1
 150 1409 l 1,9,-1
 341 1409 l 1,10,-1
 341 873 l 1,0,-1
EndSplineSet
Validated: 1
EndChar

StartChar: u10C9F
Encoding: 48 68767 49
Width: 1457
GlyphClass: 2
Flags: W
LayerCount: 2
Fore
SplineSet
851 1126 m 0,0,1
 801 1152 801 1152 632 1206 c 0,2,3
 584 1221 584 1221 533 1221 c 2,4,5
 533 1221 533 1221 522 1221 c 2,6,7
 522 1221 522 1221 506 1221 c 1,8,-1
 352 1030 l 1,9,-1
 160 1032 l 1,10,-1
 400 1414 l 1,11,12
 651 1397 651 1397 699 1386 c 0,13,14
 868 1344 868 1344 983 1253 c 0,15,16
 984 1253 984 1253 984 1252.5 c 128,-1,17
 984 1252 984 1252 985 1252 c 0,18,19
 997 1252 997 1252 1039.5 1300 c 128,-1,20
 1082 1348 1082 1348 1118 1396 c 2,21,-1
 1155 1443 l 1,22,-1
 1277 1337 l 1,23,24
 1113 1141 1113 1141 1113 1128 c 1,25,-1
 1114 1127 l 2,26,27
 1166 1073 1166 1073 1194.5 1034.5 c 128,-1,28
 1223 996 1223 996 1237.5 951 c 128,-1,29
 1252 906 1252 906 1255.5 868 c 128,-1,30
 1259 830 1259 830 1259 758 c 0,31,32
 1259 631 1259 631 1229.5 539.5 c 128,-1,33
 1200 448 1200 448 1119 341 c 0,34,35
 1118 340 1118 340 1118 337 c 0,36,37
 1118 321 1118 321 1165 272.5 c 128,-1,38
 1212 224 1212 224 1260 184 c 2,39,-1
 1307 143 l 1,40,-1
 1189 33 l 1,41,42
 1023 207 1023 207 1001 207 c 1,43,-1
 999 206 l 1,44,45
 879 85 879 85 706 44 c 0,46,47
 597 19 597 19 401 5 c 1,48,-1
 150 458 l 1,49,-1
 640 698 l 1,50,-1
 715 539 l 1,51,-1
 414 399 l 1,52,-1
 510 200 l 1,53,54
 515 201 515 201 526 201 c 0,55,56
 531 201 531 201 541.5 200.5 c 128,-1,57
 552 200 552 200 558 200 c 0,58,59
 598 200 598 200 632 211 c 0,60,61
 798 266 798 266 887 347 c 0,62,63
 888 348 888 348 888 349 c 0,64,65
 888 357 888 357 860 387.5 c 128,-1,66
 832 418 832 418 804 444 c 2,67,-1
 775 471 l 1,68,-1
 875 587 l 1,69,-1
 983 495 l 1,70,71
 998 463 998 463 1015 463 c 0,72,73
 1024 463 1024 463 1031 475 c 0,74,75
 1107 604 1107 604 1107 748 c 0,76,77
 1107 847 1107 847 1095.5 877 c 128,-1,78
 1084 907 1084 907 1020 975 c 1,79,-1
 1000 1005 l 1,80,81
 995 1005 995 1005 964.5 970.5 c 128,-1,82
 934 936 934 936 906 902 c 2,83,-1
 879 867 l 1,84,-1
 755 991 l 1,85,86
 855 1090 855 1090 855 1119 c 0,87,88
 855 1125 855 1125 851 1126 c 0,0,1
EndSplineSet
Validated: 1
EndChar

StartChar: u10CA0
Encoding: 49 68768 50
Width: 1254
GlyphClass: 2
Flags: W
LayerCount: 2
Fore
SplineSet
913 1409 m 1,0,-1
 1104 1409 l 1,1,-1
 1104 0 l 1,2,-1
 913 0 l 1,3,-1
 913 433 l 1,4,-1
 151 3 l 1,5,-1
 151 163 l 1,6,-1
 913 593 l 1,7,-1
 913 843 l 1,8,-1
 151 411 l 1,9,-1
 150 571 l 1,10,-1
 913 1005 l 1,11,-1
 913 1233 l 1,12,-1
 151 797 l 1,13,-1
 151 967 l 1,14,-1
 913 1409 l 1,0,-1
EndSplineSet
Validated: 1
EndChar

StartChar: u10CA1
Encoding: 50 68769 51
Width: 1921
GlyphClass: 2
Flags: W
LayerCount: 2
Fore
SplineSet
923 1271 m 1,0,1
 824 1205 824 1205 730.5 1096 c 128,-1,2
 637 987 637 987 581 879.5 c 128,-1,3
 525 772 525 772 525 704 c 0,4,5
 525 604 525 604 650.5 440 c 128,-1,6
 776 276 776 276 936 157 c 1,7,8
 1093 273 1093 273 1216.5 436 c 128,-1,9
 1340 599 1340 599 1340 701 c 0,10,11
 1340 769 1340 769 1279 878 c 128,-1,12
 1218 987 1218 987 1120.5 1095.5 c 128,-1,13
 1023 1204 1023 1204 923 1271 c 1,0,1
1395 316 m 1,14,-1
 1395 314 l 2,15,16
 1395 298 1395 298 1461.5 219.5 c 128,-1,17
 1528 141 1528 141 1594 70 c 2,18,-1
 1660 0 l 1,19,-1
 1469 0 l 1,20,21
 1466 4 1466 4 1460.5 10.5 c 128,-1,22
 1455 17 1455 17 1439 36 c 128,-1,23
 1423 55 1423 55 1408 72.5 c 128,-1,24
 1393 90 1393 90 1373.5 111 c 128,-1,25
 1354 132 1354 132 1338.5 147 c 128,-1,26
 1323 162 1323 162 1309.5 172.5 c 128,-1,27
 1296 183 1296 183 1290 183 c 0,28,29
 1288 183 1288 183 1287 182 c 0,30,31
 1245 140 1245 140 1148.5 83.5 c 128,-1,32
 1052 27 1052 27 1021 5 c 1,33,-1
 853 5 l 1,34,35
 764 68 764 68 634 180 c 0,36,37
 633 181 633 181 630 181 c 0,38,39
 616 181 616 181 571.5 135.5 c 128,-1,40
 527 90 527 90 490 45 c 2,41,-1
 452 0 l 1,42,-1
 261 0 l 1,43,44
 523 266 523 266 523 292 c 1,45,-1
 522 293 l 1,46,47
 362 491 362 491 341 635 c 0,48,49
 341 638 341 638 337 638 c 0,50,51
 325 638 325 638 278.5 604 c 128,-1,52
 232 570 232 570 191 536 c 2,53,-1
 150 503 l 1,54,-1
 150 659 l 1,55,56
 158 664 158 664 170.5 673 c 128,-1,57
 183 682 183 682 216 706 c 128,-1,58
 249 730 249 730 275 750.5 c 128,-1,59
 301 771 301 771 323 792 c 128,-1,60
 345 813 345 813 347 823 c 0,61,62
 369 919 369 919 432.5 1007.5 c 128,-1,63
 496 1096 496 1096 613 1205 c 1,64,65
 608 1206 608 1206 608 1209 c 0,66,67
 608 1216 608 1216 633 1231 c 128,-1,68
 658 1246 658 1246 685 1259.5 c 128,-1,69
 712 1273 712 1273 714 1275 c 1,70,-1
 575 1216 l 1,71,-1
 495 1176 l 1,72,-1
 289 1073 l 1,73,-1
 289 1201 l 1,74,75
 890 1407 890 1407 912 1423 c 1,76,77
 923 1416 923 1416 1090.5 1365.5 c 128,-1,78
 1258 1315 1258 1315 1420 1268 c 2,79,-1
 1582 1221 l 1,80,-1
 1582 1093 l 1,81,82
 1352 1194 1352 1194 1350 1194 c 2,83,-1
 1130 1274 l 1,84,85
 1311 1131 1311 1131 1403.5 1038.5 c 128,-1,86
 1496 946 1496 946 1528 851 c 0,87,88
 1535 831 1535 831 1596 782.5 c 128,-1,89
 1657 734 1657 734 1714 696 c 2,90,-1
 1771 657 l 1,91,-1
 1768 501 l 1,92,93
 1572 648 1572 648 1539 648 c 0,94,95
 1534 648 1534 648 1534 645 c 0,96,97
 1522 570 1522 570 1484 478 c 128,-1,98
 1446 386 1446 386 1395 316 c 1,14,-1
EndSplineSet
Validated: 1
EndChar

StartChar: u10CA2
Encoding: 51 68770 52
Width: 1444
GlyphClass: 2
Flags: W
LayerCount: 2
Fore
SplineSet
1103 0 m 1,0,-1
 1103 863 l 1,1,-1
 341 433 l 1,2,-1
 341 0 l 1,3,-1
 150 0 l 1,4,-1
 150 1409 l 1,5,-1
 341 1409 l 1,6,-1
 341 593 l 1,7,-1
 1103 1023 l 1,8,-1
 1103 1409 l 1,9,-1
 1294 1409 l 1,10,-1
 1294 0 l 1,11,-1
 1103 0 l 1,0,-1
EndSplineSet
Validated: 1
EndChar

StartChar: u10CA3
Encoding: 52 68771 53
Width: 1062
GlyphClass: 2
Flags: W
LayerCount: 2
Fore
SplineSet
912 1020 m 1,0,-1
 912 863 l 1,1,-1
 150 433 l 1,2,-1
 150 590 l 1,3,-1
 912 1020 l 1,0,-1
EndSplineSet
Validated: 1
EndChar

StartChar: u10CA4
Encoding: 53 68772 54
Width: 1378
GlyphClass: 2
Flags: W
LayerCount: 2
Fore
SplineSet
959 555 m 1,0,-1
 774 1026 l 2,1,2
 750 1083 750 1083 718 1182 c 2,3,-1
 691 1265 l 1,4,-1
 682 1237 l 2,5,6
 652 1140 652 1140 608 1024 c 2,7,-1
 368 411 l 1,8,-1
 208 0 l 1,9,-1
 10 0 l 1,10,-1
 585 1409 l 1,11,-1
 802 1409 l 1,12,-1
 1368 0 l 1,13,-1
 1173 0 l 1,14,-1
 959 555 l 1,0,-1
EndSplineSet
Validated: 1
EndChar

StartChar: u10CA5
Encoding: 54 68773 55
Width: 491
GlyphClass: 2
Flags: W
LayerCount: 2
Fore
SplineSet
150 0 m 1,0,-1
 150 1409 l 1,1,-1
 341 1409 l 1,2,-1
 341 0 l 1,3,-1
 150 0 l 1,0,-1
EndSplineSet
Validated: 1
EndChar

StartChar: u10CA6
Encoding: 55 68774 56
Width: 963
GlyphClass: 2
Flags: W
LayerCount: 2
Fore
SplineSet
482 993 m 1,0,-1
 482 1409 l 1,1,-1
 673 1409 l 1,2,-1
 673 0 l 1,3,-1
 482 0 l 1,4,-1
 482 782 l 1,5,-1
 10 1405 l 1,6,-1
 181 1404 l 1,7,-1
 482 993 l 1,0,-1
EndSplineSet
Validated: 1
EndChar

StartChar: u10CA7
Encoding: 56 68775 57
Width: 1776
GlyphClass: 2
Flags: W
LayerCount: 2
Fore
SplineSet
322 965 m 1,0,-1
 150 965 l 1,1,-1
 482 1410 l 1,2,-1
 798 1003 l 1,3,-1
 797 1415 l 1,4,-1
 988 1415 l 1,5,-1
 989 1003 l 1,6,-1
 1303 1410 l 1,7,-1
 1626 961 l 1,8,-1
 1454 961 l 1,9,-1
 1302 1176 l 1,10,-1
 987 821 l 1,11,-1
 996 6 l 1,12,-1
 805 6 l 1,13,-1
 796 821 l 1,14,-1
 483 1166 l 1,15,-1
 322 965 l 1,0,-1
EndSplineSet
Validated: 1
EndChar

StartChar: u10CA8
Encoding: 57 68776 58
Width: 1257
GlyphClass: 2
Flags: W
LayerCount: 2
Fore
SplineSet
808 385 m 1,0,-1
 643 616 l 1,1,-1
 201 0 l 1,2,-1
 10 0 l 1,3,-1
 526 732 l 1,4,-1
 51 1409 l 1,5,-1
 242 1409 l 1,6,-1
 391 1203 l 1,7,-1
 538 1413 l 1,8,-1
 729 1413 l 1,9,-1
 487 1071 l 1,10,-1
 634 856 l 1,11,-1
 1015 1409 l 1,12,-1
 1206 1409 l 1,13,-1
 744 739 l 1,14,-1
 1247 0 l 1,15,-1
 1056 0 l 1,16,-1
 898 231 l 1,17,-1
 734 3 l 1,18,-1
 543 3 l 1,19,-1
 808 385 l 1,0,-1
EndSplineSet
Validated: 1
EndChar

StartChar: u10CA9
Encoding: 58 68777 59
Width: 1297
GlyphClass: 2
Flags: W
LayerCount: 2
Fore
SplineSet
974 172 m 1,0,-1
 653 616 l 1,1,-1
 221 0 l 1,2,-1
 10 0 l 1,3,-1
 546 732 l 1,4,-1
 51 1409 l 1,5,-1
 262 1409 l 1,6,-1
 654 856 l 1,7,-1
 915 1235 l 1,8,-1
 648 1167 l 1,9,-1
 645 1319 l 1,10,-1
 1035 1409 l 1,11,-1
 1246 1409 l 1,12,-1
 764 739 l 1,13,-1
 1287 0 l 1,14,-1
 1076 0 l 1,15,-1
 673 91 l 1,16,-1
 674 246 l 1,17,-1
 974 172 l 1,0,-1
EndSplineSet
Validated: 1
EndChar

StartChar: u10CAA
Encoding: 59 68778 60
Width: 1492
GlyphClass: 2
Flags: W
LayerCount: 2
Fore
SplineSet
340 207 m 1,0,-1
 740 558 l 1,1,-1
 1147 204 l 1,2,-1
 1142 1204 l 1,3,-1
 743 840 l 1,4,-1
 340 1207 l 1,5,-1
 340 207 l 1,0,-1
150 2 m 1,6,-1
 150 1411 l 1,7,-1
 342 1411 l 1,8,-1
 743 1044 l 1,9,-1
 1150 1409 l 1,10,-1
 1342 1411 l 1,11,-1
 1342 2 l 1,12,-1
 1150 -1 l 1,13,-1
 743 374 l 1,14,-1
 342 2 l 1,15,-1
 150 2 l 1,6,-1
EndSplineSet
Validated: 1
EndChar

StartChar: u10CAB
Encoding: 60 68779 61
Width: 1576
GlyphClass: 2
Flags: W
LayerCount: 2
Fore
SplineSet
336 1165 m 1,0,-1
 341 224 l 1,1,-1
 678 699 l 1,2,-1
 336 1165 l 1,0,-1
863 699 m 1,3,-1
 1229 234 l 1,4,-1
 1229 1169 l 1,5,-1
 863 699 l 1,3,-1
150 0 m 1,6,-1
 150 1409 l 1,7,-1
 342 1409 l 1,8,-1
 766 807 l 1,9,-1
 1234 1413 l 1,10,-1
 1426 1414 l 1,11,-1
 1426 0 l 1,12,-1
 1234 0 l 1,13,-1
 766 597 l 1,14,-1
 343 0 l 1,15,-1
 150 0 l 1,6,-1
EndSplineSet
Validated: 1
EndChar

StartChar: u10CAC
Encoding: 61 68780 62
Width: 1658
GlyphClass: 2
Flags: W
LayerCount: 2
Fore
SplineSet
1162 1165 m 1,0,-1
 1380 1383 l 1,1,-1
 1493 1260 l 1,2,-1
 1252 1027 l 1,3,4
 1349 843 1349 843 1349 694 c 0,5,6
 1349 529 1349 529 1286 403 c 1,7,-1
 1508 146 l 1,8,-1
 1375 7 l 1,9,-1
 1178 256 l 1,10,11
 1087 130 1087 130 955 7 c 1,12,-1
 686 6 l 1,13,14
 693 13 693 13 696 13 c 1,15,-1
 678 13 l 1,16,17
 548 134 548 134 463 248 c 1,18,-1
 274 9 l 1,19,-1
 161 140 l 1,20,-1
 383 393 l 1,21,22
 381 398 381 398 362 436 c 128,-1,23
 343 474 343 474 338.5 484.5 c 128,-1,24
 334 495 334 495 320.5 528.5 c 128,-1,25
 307 562 307 562 302.5 582.5 c 128,-1,26
 298 603 298 603 293 634 c 128,-1,27
 288 665 288 665 288 695 c 0,28,29
 288 752 288 752 305 816 c 128,-1,30
 322 880 322 880 335 909.5 c 128,-1,31
 348 939 348 939 380 1006 c 1,32,-1
 150 1278 l 1,33,-1
 274 1387 l 1,34,-1
 460 1165 l 1,35,36
 529 1264 529 1264 692 1415 c 1,37,-1
 944 1415 l 1,38,39
 939 1409 939 1409 937 1409 c 1,40,-1
 940 1409 l 1,41,42
 1071 1287 1071 1287 1162 1165 c 1,0,-1
820 188 m 1,43,44
 991 335 991 335 1074.5 450.5 c 128,-1,45
 1158 566 1158 566 1158 692 c 0,46,47
 1158 821 1158 821 1070.5 948.5 c 128,-1,48
 983 1076 983 1076 812 1227 c 1,49,50
 647 1080 647 1080 563 953.5 c 128,-1,51
 479 827 479 827 479 699 c 128,-1,52
 479 571 479 571 563 453 c 128,-1,53
 647 335 647 335 820 188 c 1,43,44
EndSplineSet
Validated: 1
EndChar

StartChar: u10CAD
Encoding: 62 68781 63
Width: 1108
GlyphClass: 2
Flags: W
LayerCount: 2
Fore
SplineSet
958 7 m 1,0,-1
 766 7 l 1,1,-1
 763 714 l 1,2,-1
 150 426 l 1,3,-1
 150 1409 l 1,4,-1
 342 1409 l 1,5,-1
 342 687 l 1,6,-1
 958 972 l 1,7,-1
 958 7 l 1,0,-1
EndSplineSet
Validated: 1
EndChar

StartChar: u10CAE
Encoding: 63 68782 64
Width: 1444
GlyphClass: 2
Flags: W
LayerCount: 2
Fore
SplineSet
341 1409 m 1,0,-1
 700 1026 l 1,1,-1
 1103 1403 l 1,2,-1
 1294 1409 l 1,3,-1
 1294 0 l 1,4,-1
 1103 0 l 1,5,-1
 1103 1189 l 1,6,-1
 704 825 l 1,7,-1
 341 1195 l 1,8,-1
 341 0 l 1,9,-1
 150 0 l 1,10,-1
 150 1409 l 1,11,-1
 341 1409 l 1,0,-1
EndSplineSet
Validated: 1
EndChar

StartChar: u10CAF
Encoding: 64 68783 65
Width: 1444
GlyphClass: 2
Flags: W
LayerCount: 2
Fore
SplineSet
1103 1025 m 1,0,-1
 1103 1203 l 1,1,-1
 341 767 l 1,2,-1
 341 591 l 1,3,-1
 1103 1025 l 1,0,-1
1103 863 m 1,4,-1
 341 431 l 1,5,-1
 341 203 l 1,6,-1
 1103 633 l 1,7,-1
 1103 863 l 1,4,-1
1103 1409 m 1,8,-1
 1294 1409 l 1,9,-1
 1294 0 l 1,10,-1
 1103 0 l 1,11,-1
 1103 473 l 1,12,-1
 341 43 l 1,13,-1
 341 0 l 1,14,-1
 150 0 l 1,15,-1
 150 1409 l 1,16,-1
 341 1409 l 1,17,-1
 341 937 l 1,18,-1
 1100 1364 l 1,19,-1
 1103 1409 l 1,8,-1
EndSplineSet
Validated: 1
EndChar

StartChar: u10CB0
Encoding: 65 68784 66
Width: 1436
GlyphClass: 2
Flags: W
LayerCount: 2
Fore
SplineSet
813 1409 m 1,0,-1
 814 1043 l 1,1,-1
 1115 1404 l 1,2,-1
 1286 1405 l 1,3,-1
 813 845 l 1,4,-1
 813 0 l 1,5,-1
 622 0 l 1,6,-1
 622 852 l 1,7,-1
 150 1405 l 1,8,-1
 321 1404 l 1,9,-1
 622 1043 l 1,10,-1
 622 1409 l 1,11,-1
 813 1409 l 1,0,-1
EndSplineSet
Validated: 1
EndChar

StartChar: u10CB1
Encoding: 66 68785 67
Width: 1776
GlyphClass: 2
Flags: W
LayerCount: 2
Fore
SplineSet
796 1 m 1,0,-1
 483 346 l 1,1,-1
 322 195 l 1,2,-1
 150 195 l 1,3,-1
 482 540 l 1,4,-1
 798 183 l 1,5,-1
 796 481 l 1,6,-1
 483 776 l 1,7,-1
 322 625 l 1,8,-1
 150 625 l 1,9,-1
 482 970 l 1,10,-1
 798 663 l 1,11,-1
 796 921 l 1,12,-1
 483 1221 l 1,13,-1
 322 1060 l 1,14,-1
 150 1060 l 1,15,-1
 482 1405 l 1,16,-1
 798 1098 l 1,17,-1
 797 1410 l 1,18,-1
 988 1410 l 1,19,-1
 985 1098 l 1,20,-1
 1303 1405 l 1,21,-1
 1626 1056 l 1,22,-1
 1454 1056 l 1,23,-1
 1302 1231 l 1,24,-1
 987 921 l 1,25,-1
 979 663 l 1,26,-1
 1303 970 l 1,27,-1
 1626 621 l 1,28,-1
 1454 621 l 1,29,-1
 1302 786 l 1,30,-1
 977 481 l 1,31,-1
 979 183 l 1,32,-1
 1303 540 l 1,33,-1
 1626 191 l 1,34,-1
 1454 191 l 1,35,-1
 1302 356 l 1,36,-1
 987 1 l 1,37,-1
 796 1 l 1,0,-1
EndSplineSet
Validated: 1
EndChar

StartChar: u10CB2
Encoding: 67 68786 68
Width: 1496
GlyphClass: 2
Flags: W
LayerCount: 2
Fore
SplineSet
837 203 m 1,0,1
 951 317 951 317 1053 471.5 c 128,-1,2
 1155 626 1155 626 1155 701 c 0,3,4
 1155 795 1155 795 1059 952 c 128,-1,5
 963 1109 963 1109 835 1219 c 1,6,-1
 837 203 l 1,0,1
651 207 m 1,7,-1
 654 1219 l 1,8,9
 531 1107 531 1107 435.5 949.5 c 128,-1,10
 340 792 340 792 340 704 c 0,11,12
 340 633 340 633 441.5 475.5 c 128,-1,13
 543 318 543 318 651 207 c 1,7,-1
668 5 m 1,14,15
 398 198 398 198 274 364 c 128,-1,16
 150 530 150 530 150 714 c 0,17,18
 150 896 150 896 270 1061 c 128,-1,19
 390 1226 390 1226 649 1414 c 1,20,-1
 833 1414 l 1,21,22
 1102 1225 1102 1225 1224 1056.5 c 128,-1,23
 1346 888 1346 888 1346 702 c 0,24,25
 1346 517 1346 517 1225.5 354 c 128,-1,26
 1105 191 1105 191 836 5 c 1,27,-1
 668 5 l 1,14,15
EndSplineSet
Validated: 1
EndChar

StartChar: u10CC0
Encoding: 68 68800 69
Width: 1309
GlyphClass: 2
Flags: W
LayerCount: 2
Fore
SplineSet
1041 1120 m 5,0,-1
 1036 -7 l 5,1,-1
 845 -7 l 5,2,-1
 844 496 l 5,3,-1
 133 494 l 5,4,-1
 132 610 l 5,5,-1
 850 1120 l 5,6,-1
 1041 1120 l 5,0,-1
848 618 m 5,7,-1
 848 966 l 5,8,-1
 352 615 l 5,9,-1
 848 618 l 5,7,-1
EndSplineSet
Validated: 1
EndChar

StartChar: u10CC1
Encoding: 69 68801 70
Width: 1239
GlyphClass: 2
Flags: W
LayerCount: 2
Fore
SplineSet
971 1120 m 1,0,-1
 966 -7 l 1,1,-1
 775 -7 l 1,2,-1
 774 496 l 1,3,-1
 133 734 l 1,4,-1
 132 850 l 1,5,-1
 780 1120 l 1,6,-1
 971 1120 l 1,0,-1
778 618 m 1,7,-1
 778 998 l 1,8,-1
 312 807 l 1,9,-1
 778 618 l 1,7,-1
EndSplineSet
Validated: 1
EndChar

StartChar: u10CC2
Encoding: 70 68802 71
Width: 1397
GlyphClass: 2
Flags: W
LayerCount: 2
Fore
SplineSet
1176 -7 m 1,0,-1
 753 486 l 1,1,-1
 321 -7 l 1,2,-1
 110 -7 l 1,3,-1
 646 578 l 1,4,-1
 151 1120 l 1,5,-1
 362 1120 l 1,6,-1
 754 678 l 1,7,-1
 1135 1120 l 1,8,-1
 1346 1120 l 1,9,-1
 864 584 l 1,10,-1
 1387 -7 l 1,11,-1
 1176 -7 l 1,0,-1
EndSplineSet
Validated: 1
EndChar

StartChar: u10CC3
Encoding: 71 68803 72
Width: 1606
GlyphClass: 2
Flags: W
LayerCount: 2
Fore
SplineSet
374 -1 m 1,0,-1
 81 215 l 1,1,-1
 182 323 l 1,2,-1
 387 159 l 1,3,-1
 475 249 l 1,4,5
 424 318 424 318 395 396 c 128,-1,6
 366 474 366 474 366 564 c 0,7,8
 366 652 366 652 395 730.5 c 128,-1,9
 424 809 424 809 475 878 c 1,10,-1
 397 948 l 1,11,-1
 182 783 l 1,12,-1
 91 905 l 1,13,-1
 374 1128 l 1,14,-1
 573 987 l 1,15,16
 614 1024 614 1024 658 1058 c 128,-1,17
 702 1092 702 1092 751 1128 c 1,18,-1
 893 1128 l 1,19,20
 940 1094 940 1094 984 1060 c 128,-1,21
 1028 1026 1028 1026 1067 990 c 1,22,-1
 1254 1128 l 1,23,-1
 1525 951 l 1,24,-1
 1418 838 l 1,25,-1
 1259 957 l 1,26,-1
 1165 884 l 1,27,28
 1220 814 1220 814 1250 735.5 c 128,-1,29
 1280 657 1280 657 1280 564 c 0,30,31
 1280 472 1280 472 1250 394 c 128,-1,32
 1220 316 1220 316 1165 245 c 1,33,-1
 1259 187 l 1,34,-1
 1418 341 l 1,35,-1
 1525 237 l 1,36,-1
 1264 -1 l 1,37,-1
 1067 138 l 1,38,39
 1028 103 1028 103 984 69 c 128,-1,40
 940 35 940 35 893 1 c 1,41,-1
 751 1 l 1,42,43
 653 69 653 69 575 140 c 1,44,-1
 374 -1 l 1,0,-1
825 121 m 1,45,46
 972 236 972 236 1041 334.5 c 128,-1,47
 1110 433 1110 433 1110 564 c 256,48,49
 1110 695 1110 695 1040.5 794 c 128,-1,50
 971 893 971 893 825 1008 c 1,51,-1
 821 1008 l 1,52,53
 723 931 723 931 659.5 863 c 128,-1,54
 596 795 596 795 566 724 c 128,-1,55
 536 653 536 653 536 564 c 0,56,57
 536 474 536 474 567 402.5 c 128,-1,58
 598 331 598 331 660.5 264.5 c 128,-1,59
 723 198 723 198 821 121 c 1,60,-1
 825 121 l 1,45,46
EndSplineSet
Validated: 1
EndChar

StartChar: u10CC4
Encoding: 72 68804 73
Width: 1561
GlyphClass: 2
Flags: W
LayerCount: 2
Fore
SplineSet
735 976 m 1,0,-1
 476 787 l 1,1,-1
 250 787 l 1,2,-1
 735 1120 l 1,3,-1
 926 1121 l 1,4,-1
 1411 788 l 1,5,-1
 1185 788 l 1,6,-1
 926 977 l 1,7,-1
 926 -7 l 1,8,-1
 735 -7 l 1,9,-1
 735 976 l 1,0,-1
EndSplineSet
Validated: 1
EndChar

StartChar: u10CC5
Encoding: 73 68805 74
Width: 1561
GlyphClass: 2
Flags: W
LayerCount: 2
Fore
SplineSet
926 -6 m 1,0,-1
 735 -6 l 1,1,-1
 250 329 l 1,2,-1
 476 329 l 1,3,-1
 735 140 l 1,4,-1
 735 976 l 1,5,-1
 476 788 l 1,6,-1
 250 788 l 1,7,-1
 735 1120 l 1,8,-1
 926 1121 l 1,9,-1
 1411 788 l 1,10,-1
 1185 788 l 1,11,-1
 926 977 l 1,12,-1
 926 140 l 1,13,-1
 1185 328 l 1,14,-1
 1411 328 l 1,15,-1
 926 -6 l 1,0,-1
EndSplineSet
Validated: 1
EndChar

StartChar: u10CC6
Encoding: 74 68806 75
Width: 1544
GlyphClass: 2
Flags: W
LayerCount: 2
Fore
SplineSet
1203 499 m 1,0,-1
 1203 955 l 1,1,-1
 441 606 l 1,2,-1
 441 155 l 1,3,-1
 1203 499 l 1,0,-1
1203 1120 m 1,4,-1
 1394 1120 l 1,5,-1
 1394 -7 l 1,6,-1
 1203 -7 l 1,7,-1
 1203 371 l 1,8,-1
 441 27 l 1,9,-1
 441 -7 l 1,10,-1
 250 -7 l 1,11,-1
 250 1120 l 1,12,-1
 441 1120 l 1,13,-1
 441 742 l 1,14,-1
 1200 1084 l 1,15,-1
 1203 1120 l 1,4,-1
EndSplineSet
Validated: 1
EndChar

StartChar: u10CC7
Encoding: 75 68807 76
Width: 1242
GlyphClass: 2
Flags: W
LayerCount: 2
Fore
SplineSet
755 664 m 1,0,-1
 1092 833 l 1,1,-1
 1092 707 l 1,2,-1
 753 538 l 1,3,-1
 749 -7 l 1,4,-1
 558 -7 l 1,5,-1
 558 462 l 1,6,-1
 250 307 l 1,7,-1
 250 433 l 1,8,-1
 559 593 l 1,9,-1
 558 1120 l 1,10,-1
 749 1120 l 1,11,-1
 755 664 l 1,0,-1
EndSplineSet
Validated: 1
EndChar

StartChar: u10CC8
Encoding: 76 68808 77
Width: 1367
GlyphClass: 2
Flags: W
LayerCount: 2
Fore
SplineSet
849 558 m 1,0,-1
 1357 -7 l 1,1,-1
 1166 -7 l 1,2,-1
 743 486 l 1,3,-1
 311 -7 l 1,4,-1
 110 -7 l 1,5,-1
 559 493 l 1,6,-1
 163 347 l 1,7,-1
 163 473 l 1,8,-1
 604 621 l 1,9,-1
 151 1120 l 1,10,-1
 352 1120 l 1,11,-1
 744 678 l 1,12,-1
 1125 1120 l 1,13,-1
 1316 1120 l 1,14,-1
 964 715 l 1,15,-1
 1325 841 l 1,16,-1
 1325 715 l 1,17,-1
 849 558 l 1,0,-1
EndSplineSet
Validated: 1
EndChar

StartChar: u10CC9
Encoding: 77 68809 78
Width: 1198
GlyphClass: 2
Flags: W
LayerCount: 2
Fore
SplineSet
277 152 m 1,0,1
 376 152 376 152 406 160 c 0,2,3
 561 199 561 199 605 230 c 1,4,-1
 411 359 l 1,5,-1
 522 450 l 1,6,-1
 714 322 l 1,7,8
 787 408 787 408 806 441 c 0,9,10
 840 500 840 500 840 575 c 0,11,12
 840 701 840 701 724 820 c 1,13,-1
 528 686 l 1,14,-1
 411 775 l 1,15,-1
 605 906 l 1,16,17
 524 955 524 955 406 966 c 0,18,19
 351 972 351 972 287 972 c 2,20,-1
 260 972 l 1,21,-1
 250 1126 l 1,22,23
 442 1119 442 1119 477 1111 c 0,24,25
 617 1082 617 1082 737 1005 c 1,26,-1
 913 1130 l 1,27,-1
 1040 1041 l 1,28,-1
 875 921 l 1,29,30
 1031 759 1031 759 1032 567 c 2,31,-1
 1032 562 l 2,32,33
 1032 488 1032 488 1012.5 429.5 c 128,-1,34
 993 371 993 371 963.5 331 c 128,-1,35
 934 291 934 291 873 226 c 1,36,-1
 1048 104 l 1,37,-1
 927 4 l 1,38,-1
 759 124 l 1,39,40
 646 52 646 52 477 13 c 0,41,42
 426 1 426 1 287 -2 c 1,43,-1
 277 152 l 1,0,1
EndSplineSet
Validated: 1
EndChar

StartChar: u10CCA
Encoding: 78 68810 79
Width: 876
GlyphClass: 2
Flags: W
LayerCount: 2
Fore
SplineSet
111 117 m 1,0,1
 172 142 172 142 224 164 c 128,-1,2
 276 186 276 186 322 210 c 1,3,4
 222 285 222 285 177.5 370.5 c 128,-1,5
 133 456 133 456 133 564 c 0,6,7
 133 668 133 668 177 753 c 128,-1,8
 221 838 221 838 315 912 c 1,9,10
 270 935 270 935 218 959 c 128,-1,11
 166 983 166 983 102 1007 c 1,12,-1
 195 1126 l 1,13,14
 349 1065 349 1065 459 1003 c 1,15,16
 570 1065 570 1065 723 1126 c 1,17,-1
 815 1007 l 1,18,19
 752 982 752 982 699.5 958 c 128,-1,20
 647 934 647 934 602 912 c 1,21,22
 698 838 698 838 741 753 c 128,-1,23
 784 668 784 668 784 564 c 0,24,25
 784 456 784 456 740 370.5 c 128,-1,26
 696 285 696 285 596 210 c 1,27,28
 641 186 641 186 693 164 c 128,-1,29
 745 142 745 142 807 117 c 1,30,-1
 731 -1 l 1,31,32
 569 65 569 65 459 122 c 1,33,34
 348 65 348 65 186 -1 c 1,35,-1
 111 117 l 1,0,1
459 292 m 1,36,37
 539 353 539 353 570.5 418 c 128,-1,38
 602 483 602 483 602 564 c 0,39,40
 602 643 602 643 570.5 706 c 128,-1,41
 539 769 539 769 459 828 c 1,42,43
 379 769 379 769 347 706.5 c 128,-1,44
 315 644 315 644 315 564 c 0,45,46
 315 483 315 483 347 418 c 128,-1,47
 379 353 379 353 459 292 c 1,36,37
EndSplineSet
Validated: 1
EndChar

StartChar: u10CCB
Encoding: 79 68811 80
Width: 1140
GlyphClass: 2
Flags: W
LayerCount: 2
Fore
SplineSet
257 211 m 1,0,1
 515 278 515 278 635.5 343.5 c 128,-1,2
 756 409 756 409 756 489 c 2,3,-1
 756 575 l 2,4,5
 756 693 756 693 658 766 c 128,-1,6
 560 839 560 839 352 891 c 1,7,-1
 254 907 l 1,8,-1
 250 1011 l 1,9,-1
 651 1121 l 1,10,-1
 853 1120 l 1,11,-1
 856 1037 l 1,12,-1
 505 975 l 1,13,14
 730 900 730 900 860 787.5 c 128,-1,15
 990 675 990 675 990 547 c 0,16,17
 990 465 990 465 871 370 c 128,-1,18
 752 275 752 275 525 160 c 1,19,-1
 868 76 l 1,20,-1
 866 -7 l 1,21,-1
 664 -6 l 1,22,-1
 260 107 l 1,23,-1
 257 211 l 1,0,1
EndSplineSet
Validated: 1
EndChar

StartChar: u10CCC
Encoding: 80 68812 81
Width: 1596
GlyphClass: 2
Flags: W
LayerCount: 2
Fore
SplineSet
826 477 m 1,0,-1
 614 260 l 1,1,2
 648 227 648 227 683 206.5 c 128,-1,3
 718 186 718 186 766 164 c 128,-1,4
 814 142 814 142 851 120 c 1,5,6
 894 145 894 145 956 191.5 c 128,-1,7
 1018 238 1018 238 1060 275 c 1,8,-1
 826 477 l 1,0,-1
748 539 m 1,9,-1
 497 731 l 1,10,11
 478 706 478 706 467.5 688 c 128,-1,12
 457 670 457 670 448 640 c 128,-1,13
 439 610 439 610 439 577 c 0,14,15
 439 574 439 574 439.5 567 c 128,-1,16
 440 560 440 560 440 557 c 0,17,18
 445 482 445 482 462.5 434 c 128,-1,19
 480 386 480 386 523 344 c 1,20,-1
 748 539 l 1,9,-1
812 614 m 1,21,-1
 1077 838 l 1,22,23
 979 936 979 936 838 1011 c 1,24,25
 776 977 776 977 695 920 c 128,-1,26
 614 863 614 863 562 813 c 1,27,-1
 812 614 l 1,21,-1
904 533 m 1,28,-1
 1145 348 l 1,29,30
 1153 357 1153 357 1176.5 384.5 c 128,-1,31
 1200 412 1200 412 1208.5 424 c 128,-1,32
 1217 436 1217 436 1231 458.5 c 128,-1,33
 1245 481 1245 481 1250 504 c 128,-1,34
 1255 527 1255 527 1255 553 c 0,35,36
 1255 596 1255 596 1236 638 c 128,-1,37
 1217 680 1217 680 1199.5 701.5 c 128,-1,38
 1182 723 1182 723 1155 750 c 1,39,-1
 904 533 l 1,28,-1
768 -2 m 1,40,41
 498 152 498 152 374 285 c 128,-1,42
 250 418 250 418 250 565 c 0,43,44
 250 711 250 711 370 843 c 128,-1,45
 490 975 490 975 749 1125 c 1,46,-1
 933 1125 l 1,47,48
 1202 974 1202 974 1324 839 c 128,-1,49
 1446 704 1446 704 1446 556 c 128,-1,50
 1446 408 1446 408 1325.5 277.5 c 128,-1,51
 1205 147 1205 147 936 -2 c 1,52,-1
 768 -2 l 1,40,41
EndSplineSet
Validated: 1
EndChar

StartChar: u10CCD
Encoding: 81 68813 82
Width: 1478
GlyphClass: 2
Flags: W
LayerCount: 2
Fore
SplineSet
963 642 m 1,0,-1
 791 1005 l 1,1,-1
 308 -7 l 1,2,-1
 110 -7 l 1,3,-1
 685 1120 l 1,4,-1
 902 1120 l 1,5,-1
 1468 -7 l 1,6,-1
 1273 -7 l 1,7,-1
 1040 469 l 1,8,-1
 801 -7 l 1,9,10
 801 -7 801 -7 608 -7 c 1,11,-1
 963 642 l 1,0,-1
EndSplineSet
Validated: 1
EndChar

StartChar: u10CCE
Encoding: 82 68814 83
Width: 1242
GlyphClass: 2
Flags: W
LayerCount: 2
Fore
SplineSet
754 648 m 1,0,-1
 755 432 l 1,1,-1
 1092 601 l 1,2,-1
 1092 475 l 1,3,-1
 753 306 l 1,4,-1
 749 -7 l 1,5,-1
 558 -7 l 1,6,-1
 558 230 l 1,7,-1
 250 75 l 1,8,-1
 250 201 l 1,9,-1
 559 361 l 1,10,-1
 559 574 l 1,11,-1
 250 419 l 1,12,-1
 250 545 l 1,13,-1
 558 706 l 1,14,-1
 558 1120 l 1,15,-1
 749 1120 l 1,16,-1
 751 776 l 1,17,-1
 1092 945 l 1,18,-1
 1092 819 l 1,19,-1
 754 648 l 1,0,-1
EndSplineSet
Validated: 1
EndChar

StartChar: u10CCF
Encoding: 83 68815 84
Width: 1353
GlyphClass: 2
Flags: W
LayerCount: 2
Fore
SplineSet
1123 -6 m 1,0,-1
 737 231 l 1,1,-1
 334 -6 l 1,2,-1
 251 -6 l 1,3,-1
 250 65 l 1,4,-1
 635 296 l 1,5,-1
 307 502 l 1,6,-1
 302 623 l 1,7,-1
 624 782 l 1,8,-1
 253 985 l 1,9,-1
 253 1117 l 1,10,-1
 314 1117 l 1,11,-1
 742 849 l 1,12,-1
 1153 1117 l 1,13,-1
 1194 1116 l 1,14,-1
 1198 985 l 1,15,-1
 860 790 l 1,16,-1
 1190 621 l 1,17,-1
 1194 501 l 1,18,-1
 840 297 l 1,19,-1
 1198 69 l 1,20,-1
 1203 -7 l 1,21,-1
 1123 -6 l 1,0,-1
1042 557 m 1,22,-1
 741 721 l 1,23,-1
 451 553 l 1,24,-1
 741 370 l 1,25,-1
 1042 557 l 1,22,-1
EndSplineSet
Validated: 1
EndChar

StartChar: u10CD0
Encoding: 84 68816 85
Width: 1242
GlyphClass: 2
Flags: W
LayerCount: 2
Fore
SplineSet
755 961 m 1,0,-1
 1092 1130 l 1,1,-1
 1092 1004 l 1,2,-1
 753 835 l 1,3,-1
 749 -6 l 1,4,-1
 558 -6 l 1,5,-1
 558 759 l 1,6,-1
 250 604 l 1,7,-1
 250 730 l 1,8,-1
 559 890 l 1,9,-1
 558 1121 l 1,10,-1
 749 1121 l 1,11,-1
 755 961 l 1,0,-1
EndSplineSet
Validated: 1
EndChar

StartChar: u10CD1
Encoding: 85 68817 86
Width: 1242
GlyphClass: 2
Flags: W
LayerCount: 2
Fore
SplineSet
1089 1139 m 1,0,-1
 1092 1005 l 1,1,-1
 753 836 l 1,2,-1
 749 -5 l 1,3,-1
 558 -5 l 1,4,-1
 558 760 l 1,5,-1
 250 605 l 1,6,-1
 250 731 l 1,7,-1
 1089 1139 l 1,0,-1
EndSplineSet
Validated: 1
EndChar

StartChar: u10CD2
Encoding: 86 68818 87
Width: 1053
GlyphClass: 2
Flags: W
LayerCount: 2
Fore
SplineSet
250 833 m 1,0,-1
 708 1120 l 1,1,-1
 903 1122 l 1,2,-1
 899 -6 l 1,3,-1
 708 -6 l 1,4,-1
 708 982 l 1,5,-1
 250 700 l 1,6,-1
 250 833 l 1,0,-1
EndSplineSet
Validated: 1
EndChar

StartChar: u10CD3
Encoding: 87 68819 88
Width: 1151
GlyphClass: 2
Flags: W
LayerCount: 2
Fore
SplineSet
622 115 m 1,0,-1
 955 568 l 1,1,-1
 622 1000 l 1,2,-1
 297 563 l 1,3,-1
 622 115 l 1,0,-1
719 -2 m 1,4,-1
 528 -3 l 1,5,-1
 105 563 l 1,6,-1
 522 1124 l 1,7,-1
 713 1125 l 1,8,-1
 1146 568 l 1,9,-1
 719 -2 l 1,4,-1
EndSplineSet
Validated: 1
EndChar

StartChar: u10CD4
Encoding: 88 68820 89
Width: 1571
GlyphClass: 2
Flags: W
LayerCount: 2
Fore
SplineSet
1421 523 m 1,0,-1
 951 -6 l 1,1,-1
 772 -5 l 1,2,-1
 760 958 l 1,3,-1
 441 627 l 1,4,-1
 250 628 l 1,5,-1
 764 1122 l 1,6,-1
 945 1121 l 1,7,-1
 945 156 l 1,8,-1
 1230 521 l 1,9,-1
 1421 523 l 1,0,-1
EndSplineSet
Validated: 1
EndChar

StartChar: u10CD5
Encoding: 89 68821 90
Width: 1433
GlyphClass: 2
Flags: W
LayerCount: 2
Fore
SplineSet
375 102 m 1,0,-1
 674 592 l 1,1,-1
 431 1008 l 1,2,-1
 110 748 l 1,3,-1
 110 896 l 1,4,-1
 359 1120 l 1,5,-1
 526 1120 l 1,6,-1
 776 678 l 1,7,-1
 1028 1122 l 1,8,-1
 1195 1122 l 1,9,-1
 1413 940 l 1,10,-1
 1423 784 l 1,11,-1
 1121 1029 l 1,12,-1
 865 592 l 1,13,-1
 1137 111 l 1,14,-1
 1421 428 l 1,15,-1
 1423 216 l 1,16,-1
 1227 -5 l 1,17,-1
 1060 -5 l 1,18,-1
 761 503 l 1,19,-1
 459 -5 l 1,20,-1
 291 -5 l 1,21,-1
 110 208 l 1,22,-1
 110 384 l 1,23,-1
 375 102 l 1,0,-1
EndSplineSet
Validated: 1
EndChar

StartChar: u10CD6
Encoding: 90 68822 91
Width: 1898
GlyphClass: 2
Flags: W
LayerCount: 2
Fore
SplineSet
991 1005 m 1,0,-1
 308 -7 l 1,1,-1
 110 -7 l 1,2,-1
 885 1120 l 1,3,-1
 1102 1120 l 1,4,-1
 1888 -7 l 1,5,-1
 1690 -7 l 1,6,-1
 1470 301 l 1,7,-1
 1247 -7 l 1,8,-1
 1049 -7 l 1,9,-1
 1382 442 l 1,10,-1
 1263 614 l 1,11,-1
 801 -7 l 1,12,-1
 603 -7 l 1,13,-1
 1151 772 l 1,14,-1
 991 1005 l 1,0,-1
EndSplineSet
Validated: 1
EndChar

StartChar: u10CD7
Encoding: 91 68823 92
Width: 1596
GlyphClass: 2
Flags: W
LayerCount: 2
Fore
SplineSet
1176 764 m 1,0,1
 1176 764 1176 764 614 300 c 1,2,3
 672 243 672 243 724.5 203.5 c 128,-1,4
 777 164 777 164 851 120 c 1,5,6
 1000 208 1000 208 1120 339 c 0,7,8
 1223 453 1223 453 1255 555 c 0,9,10
 1256 558 1256 558 1256 564 c 0,11,12
 1256 648 1256 648 1225 702 c 0,13,14
 1199 746 1199 746 1176 764 c 1,0,1
1084 843 m 1,15,16
 1084 843 1084 843 1084 844 c 0,17,18
 1084 854 1084 854 995 914 c 0,19,20
 906 975 906 975 838 1011 c 1,21,22
 691 933 691 933 563.5 799.5 c 128,-1,23
 436 666 436 666 436 582 c 0,24,25
 436 567 436 567 440 557 c 0,26,27
 442 552 442 552 446.5 538 c 128,-1,28
 451 524 451 524 453 519 c 128,-1,29
 455 514 455 514 459.5 501.5 c 128,-1,30
 464 489 464 489 467 483 c 128,-1,31
 470 477 470 477 475.5 466 c 128,-1,32
 481 455 481 455 486.5 447.5 c 128,-1,33
 492 440 492 440 499 430 c 128,-1,34
 506 420 506 420 514 410 c 0,35,36
 522 402 522 402 533 392 c 1,37,-1
 1084 843 l 1,15,16
768 -2 m 1,38,39
 498 152 498 152 374 285 c 128,-1,40
 250 418 250 418 250 565 c 0,41,42
 250 711 250 711 370 843 c 128,-1,43
 490 975 490 975 749 1125 c 1,44,-1
 933 1125 l 1,45,46
 1202 974 1202 974 1324 839 c 128,-1,47
 1446 704 1446 704 1446 556 c 128,-1,48
 1446 408 1446 408 1325.5 277.5 c 128,-1,49
 1205 147 1205 147 936 -2 c 1,50,-1
 768 -2 l 1,38,39
EndSplineSet
Validated: 1
EndChar

StartChar: u10CD8
Encoding: 92 68824 93
Width: 1209
GlyphClass: 2
Flags: W
LayerCount: 2
Fore
SplineSet
863 -8 m 1,0,-1
 251 198 l 1,1,-1
 251 328 l 1,2,-1
 762 538 l 1,3,-1
 251 742 l 1,4,-1
 250 858 l 1,5,-1
 868 1120 l 1,6,-1
 1059 1120 l 1,7,-1
 1054 -7 l 1,8,-1
 863 -8 l 1,0,-1
863 108 m 1,9,-1
 862 456 l 1,10,-1
 412 266 l 1,11,-1
 863 108 l 1,9,-1
866 618 m 1,12,-1
 866 998 l 1,13,-1
 400 807 l 1,14,-1
 866 618 l 1,12,-1
EndSplineSet
Validated: 1
EndChar

StartChar: u10CD9
Encoding: 93 68825 94
Width: 1012
GlyphClass: 2
Flags: W
LayerCount: 2
Fore
SplineSet
250 144 m 1,0,1
 340 152 340 152 372 161 c 0,2,3
 545 207 545 207 650 304 c 0,4,5
 735 383 735 383 771.5 439 c 128,-1,6
 808 495 808 495 809 575 c 0,7,8
 809 645 809 645 768.5 705.5 c 128,-1,9
 728 766 728 766 650 828 c 0,10,11
 560 900 560 900 372 947 c 0,12,13
 294 967 294 967 262 967 c 1,14,-1
 250 1120 l 1,15,16
 342 1117 342 1117 440 1098 c 0,17,18
 653 1054 653 1054 776 954 c 0,19,20
 892 861 892 861 947 771.5 c 128,-1,21
 1002 682 1002 682 1002 578 c 0,22,23
 1002 470 1002 470 950 383.5 c 128,-1,24
 898 297 898 297 776 180 c 0,25,26
 657 64 657 64 447 18 c 0,27,28
 356 -2 356 -2 250 -7 c 1,29,-1
 250 144 l 1,0,1
EndSplineSet
Validated: 1
EndChar

StartChar: u10CDA
Encoding: 94 68826 95
Width: 1145
GlyphClass: 2
Flags: W
LayerCount: 2
Fore
SplineSet
413 -4 m 1,0,-1
 250 -4 l 1,1,-1
 250 1123 l 1,2,-1
 413 1123 l 1,3,4
 531 1114 531 1114 625 1097 c 0,5,6
 828 1058 828 1058 956 954 c 0,7,8
 1050 880 1050 880 1092.5 807 c 128,-1,9
 1135 734 1135 734 1135 631 c 2,10,-1
 1135 600 l 1,11,-1
 1135 592 l 2,12,13
 1135 458 1135 458 1092.5 366.5 c 128,-1,14
 1050 275 1050 275 959 192 c 0,15,16
 828 73 828 73 627 31 c 1,17,18
 531 3 531 3 413 -4 c 1,0,-1
441 148 m 1,19,20
 490 151 490 151 565 171 c 0,21,22
 734 214 734 214 814 290 c 0,23,24
 881 352 881 352 912 421 c 128,-1,25
 943 490 943 490 943 588 c 0,26,27
 943 672 943 672 911.5 734.5 c 128,-1,28
 880 797 880 797 814 848 c 0,29,30
 728 915 728 915 565 950 c 0,31,32
 486 967 486 967 441 970 c 1,33,-1
 441 148 l 1,19,20
EndSplineSet
Validated: 1
EndChar

StartChar: u10CDB
Encoding: 95 68827 96
Width: 1499
GlyphClass: 2
Flags: W
LayerCount: 2
Fore
SplineSet
600 152 m 1,0,1
 685 159 685 159 722 168 c 0,2,3
 792 186 792 186 836 200 c 128,-1,4
 880 214 880 214 932 240 c 128,-1,5
 984 266 984 266 1019 296 c 0,6,7
 1092 362 1092 362 1124.5 427 c 128,-1,8
 1157 492 1157 492 1157 565 c 2,9,-1
 1157 566 l 1,10,-1
 1157 567 l 2,11,12
 1157 658 1157 658 1124.5 726 c 128,-1,13
 1092 794 1092 794 1019 852 c 0,14,15
 1009 860 1009 860 997.5 867 c 128,-1,16
 986 874 986 874 975.5 879.5 c 128,-1,17
 965 885 965 885 948.5 891.5 c 128,-1,18
 932 898 932 898 921.5 902 c 128,-1,19
 911 906 911 906 890 912 c 128,-1,20
 869 918 869 918 859.5 921 c 128,-1,21
 850 924 850 924 825.5 930 c 128,-1,22
 801 936 801 936 792.5 938 c 128,-1,23
 784 940 784 940 756.5 946.5 c 128,-1,24
 729 953 729 953 722 955 c 0,25,26
 671 967 671 967 623 967 c 2,27,-1
 614 967 l 1,28,-1
 610 967 l 2,29,30
 608 966 608 966 607 968 c 128,-1,31
 606 970 606 970 606 975 c 1,32,-1
 442 782 l 1,33,-1
 250 784 l 1,34,-1
 490 1121 l 1,35,36
 741 1107 741 1107 789 1099 c 0,37,38
 1026 1052 1026 1052 1134 964 c 0,39,40
 1248 873 1248 873 1298.5 780 c 128,-1,41
 1349 687 1349 687 1349 567 c 2,42,-1
 1349 566 l 2,43,44
 1350 468 1350 468 1298 374 c 128,-1,45
 1246 280 1246 280 1134 172 c 0,46,47
 1074 114 1074 114 990.5 81 c 128,-1,48
 907 48 907 48 796 27 c 0,49,50
 674 5 674 5 491 -6 c 1,51,-1
 270 318 l 1,52,-1
 464 319 l 1,53,-1
 600 152 l 1,0,1
EndSplineSet
Validated: 33
EndChar

StartChar: u10CDC
Encoding: 96 68828 97
Width: 1509
GlyphClass: 2
Flags: W
LayerCount: 2
Fore
SplineSet
610 154 m 1,0,1
 615 155 615 155 626 155 c 0,2,3
 631 155 631 155 641.5 154.5 c 128,-1,4
 652 154 652 154 658 154 c 0,5,6
 698 154 698 154 732 163 c 0,7,8
 927 214 927 214 1019 298 c 0,9,10
 1167 433 1167 433 1167 600 c 0,11,12
 1167 740 1167 740 1019 856 c 0,13,14
 992 878 992 878 946.5 896 c 128,-1,15
 901 914 901 914 868 923 c 128,-1,16
 835 932 835 932 760 952 c 0,17,18
 754 954 754 954 750.5 954.5 c 128,-1,19
 747 955 747 955 741.5 956.5 c 128,-1,20
 736 958 736 958 732 959 c 0,21,22
 684 971 684 971 633 971 c 2,23,-1
 622 971 l 1,24,-1
 606 971 l 1,25,-1
 452 818 l 1,26,-1
 260 820 l 1,27,-1
 500 1125 l 1,28,29
 751 1111 751 1111 799 1103 c 0,30,31
 1009 1062 1009 1062 1134 960 c 0,32,33
 1252 865 1252 865 1305.5 783.5 c 128,-1,34
 1359 702 1359 702 1359 600 c 0,35,36
 1359 490 1359 490 1305.5 396.5 c 128,-1,37
 1252 303 1252 303 1134 190 c 0,38,39
 1005 66 1005 66 806 29 c 0,40,41
 697 9 697 9 501 -2 c 1,42,-1
 250 360 l 1,43,-1
 740 552 l 1,44,-1
 815 425 l 1,45,-1
 514 313 l 1,46,-1
 610 154 l 1,0,1
EndSplineSet
Validated: 1
EndChar

StartChar: u10CDD
Encoding: 97 68829 98
Width: 992
GlyphClass: 2
Flags: W
LayerCount: 2
Fore
SplineSet
389 1120 m 1,0,-1
 831 801 l 1,1,-1
 442 360 l 1,2,-1
 842 91 l 1,3,-1
 753 -11 l 1,4,-1
 250 356 l 1,5,-1
 638 793 l 1,6,-1
 300 1035 l 1,7,-1
 389 1120 l 1,0,-1
EndSplineSet
Validated: 1
EndChar

StartChar: u10CDE
Encoding: 98 68830 99
Width: 1155
GlyphClass: 2
Flags: W
LayerCount: 2
Fore
SplineSet
441 691 m 1,0,-1
 840 1120 l 1,1,-1
 1065 1120 l 1,2,-1
 565 630 l 1,3,-1
 1145 -7 l 1,4,-1
 908 -7 l 1,5,-1
 441 537 l 1,6,-1
 441 -7 l 1,7,-1
 250 -7 l 1,8,-1
 250 1120 l 1,9,-1
 441 1120 l 1,10,-1
 441 691 l 1,0,-1
EndSplineSet
Validated: 1
EndChar

StartChar: u10CDF
Encoding: 99 68831 100
Width: 1557
GlyphClass: 2
Flags: W
LayerCount: 2
Fore
SplineSet
951 898 m 0,0,1
 901 919 901 919 732 962 c 0,2,3
 684 974 684 974 633 974 c 2,4,5
 633 974 633 974 622 974 c 2,6,7
 622 974 622 974 606 974 c 1,8,-1
 452 821 l 1,9,-1
 260 822 l 1,10,-1
 500 1128 l 1,11,12
 751 1114 751 1114 799 1106 c 0,13,14
 968 1072 968 1072 1083 999 c 0,15,16
 1084 999 1084 999 1084 998.5 c 128,-1,17
 1084 998 1084 998 1085 998 c 0,18,19
 1097 998 1097 998 1139.5 1036.5 c 128,-1,20
 1182 1075 1182 1075 1218 1114 c 2,21,-1
 1255 1151 l 1,22,-1
 1377 1066 l 1,23,24
 1213 909 1213 909 1213 899 c 1,25,-1
 1214 898 l 1,26,27
 1266 855 1266 855 1294.5 824.5 c 128,-1,28
 1323 794 1323 794 1337.5 758 c 128,-1,29
 1352 722 1352 722 1355.5 691.5 c 128,-1,30
 1359 661 1359 661 1359 603 c 0,31,32
 1359 501 1359 501 1329.5 428 c 128,-1,33
 1300 355 1300 355 1219 270 c 0,34,35
 1218 269 1218 269 1218 266 c 0,36,37
 1218 253 1218 253 1265 214.5 c 128,-1,38
 1312 176 1312 176 1360 144 c 2,39,-1
 1407 111 l 1,40,-1
 1289 23 l 1,41,42
 1123 162 1123 162 1101 162 c 2,43,-1
 1099 162 l 1,44,45
 979 65 979 65 806 32 c 0,46,47
 697 12 697 12 501 1 c 1,48,-1
 250 363 l 1,49,-1
 740 555 l 1,50,-1
 815 428 l 1,51,-1
 514 316 l 1,52,-1
 610 157 l 1,53,54
 615 158 615 158 626 158 c 0,55,56
 631 158 631 158 641.5 157.5 c 128,-1,57
 652 157 652 157 658 157 c 0,58,59
 698 157 698 157 732 166 c 0,60,61
 898 210 898 210 987 274 c 0,62,63
 988 275 988 275 988 276 c 0,64,65
 988 282 988 282 960 306.5 c 128,-1,66
 932 331 932 331 904 352 c 2,67,-1
 875 374 l 1,68,-1
 975 466 l 1,69,-1
 1083 393 l 1,70,71
 1098 367 1098 367 1115 367 c 0,72,73
 1124 367 1124 367 1131 377 c 0,74,75
 1207 480 1207 480 1207 595 c 0,76,77
 1207 674 1207 674 1195.5 698 c 128,-1,78
 1184 722 1184 722 1120 777 c 1,79,-1
 1100 801 l 2,80,81
 1095 801 1095 801 1064.5 773.5 c 128,-1,82
 1034 746 1034 746 1006 718 c 2,83,-1
 979 690 l 1,84,-1
 855 790 l 1,85,86
 955 869 955 869 955 892 c 0,87,88
 955 897 955 897 951 898 c 0,0,1
EndSplineSet
Validated: 1
EndChar

StartChar: u10CE0
Encoding: 100 68832 101
Width: 1354
GlyphClass: 2
Flags: W
LayerCount: 2
Fore
SplineSet
1013 1120 m 1,0,-1
 1204 1120 l 1,1,-1
 1204 -7 l 1,2,-1
 1013 -7 l 1,3,-1
 1013 339 l 1,4,-1
 251 -5 l 1,5,-1
 251 123 l 1,6,-1
 1013 467 l 1,7,-1
 1013 667 l 1,8,-1
 251 322 l 1,9,-1
 250 450 l 1,10,-1
 1013 797 l 1,11,-1
 1013 979 l 1,12,-1
 251 630 l 1,13,-1
 251 766 l 1,14,-1
 1013 1120 l 1,0,-1
EndSplineSet
Validated: 1
EndChar

StartChar: u10CE1
Encoding: 101 68833 102
Width: 2021
GlyphClass: 2
Flags: W
LayerCount: 2
Fore
SplineSet
1023 1011 m 1,0,1
 924 958 924 958 830.5 871 c 128,-1,2
 737 784 737 784 681 698 c 128,-1,3
 625 612 625 612 625 558 c 0,4,5
 625 478 625 478 750.5 346.5 c 128,-1,6
 876 215 876 215 1036 120 c 1,7,8
 1193 213 1193 213 1316.5 343.5 c 128,-1,9
 1440 474 1440 474 1440 555 c 0,10,11
 1440 609 1440 609 1379 696.5 c 128,-1,12
 1318 784 1318 784 1220.5 870.5 c 128,-1,13
 1123 957 1123 957 1023 1011 c 1,0,1
1495 247 m 1,14,-1
 1495 246 l 2,15,16
 1495 233 1495 233 1561.5 170 c 128,-1,17
 1628 107 1628 107 1694 50 c 2,18,-1
 1760 -6 l 1,19,-1
 1569 -6 l 2,20,21
 1566 -3 1566 -3 1560.5 2.5 c 128,-1,22
 1555 8 1555 8 1539 23 c 128,-1,23
 1523 38 1523 38 1508 52 c 128,-1,24
 1493 66 1493 66 1473.5 83 c 128,-1,25
 1454 100 1454 100 1438.5 112 c 128,-1,26
 1423 124 1423 124 1409.5 132.5 c 128,-1,27
 1396 141 1396 141 1390 141 c 0,28,29
 1388 141 1388 141 1387 140 c 0,30,31
 1345 106 1345 106 1248.5 61 c 128,-1,32
 1152 16 1152 16 1121 -2 c 1,33,-1
 953 -2 l 1,34,35
 864 48 864 48 734 138 c 0,36,37
 733 139 733 139 730 139 c 0,38,39
 716 139 716 139 671.5 102.5 c 128,-1,40
 627 66 627 66 590 30 c 2,41,-1
 552 -6 l 1,42,-1
 361 -6 l 1,43,44
 623 207 623 207 623 228 c 1,45,-1
 622 229 l 2,46,47
 462 387 462 387 441 502 c 0,48,49
 441 504 441 504 437 505 c 0,50,51
 425 505 425 505 378.5 477.5 c 128,-1,52
 332 450 332 450 291 423 c 2,53,-1
 250 397 l 1,54,-1
 250 522 l 1,55,56
 258 526 258 526 270.5 533 c 128,-1,57
 283 540 283 540 316 559 c 128,-1,58
 349 578 349 578 375 594.5 c 128,-1,59
 401 611 401 611 423 628 c 128,-1,60
 445 645 445 645 447 653 c 0,61,62
 469 730 469 730 532.5 800.5 c 128,-1,63
 596 871 596 871 713 958 c 1,64,65
 708 960 708 960 708 962 c 0,66,67
 708 968 708 968 733 979.5 c 128,-1,68
 758 991 758 991 785 1002 c 128,-1,69
 812 1013 812 1013 814 1014 c 1,70,-1
 675 967 l 1,71,-1
 595 935 l 1,72,-1
 389 853 l 1,73,-1
 389 955 l 1,74,75
 990 1120 990 1120 1012 1133 c 1,76,77
 1023 1127 1023 1127 1190.5 1086.5 c 128,-1,78
 1358 1046 1358 1046 1520 1009 c 2,79,-1
 1682 971 l 1,80,-1
 1682 869 l 1,81,82
 1452 950 1452 950 1450 950 c 2,83,-1
 1230 1014 l 1,84,85
 1411 900 1411 900 1503.5 825.5 c 128,-1,86
 1596 751 1596 751 1628 675 c 0,87,88
 1635 659 1635 659 1696 620.5 c 128,-1,89
 1757 582 1757 582 1814 551 c 2,90,-1
 1871 520 l 1,91,-1
 1868 395 l 1,92,93
 1672 513 1672 513 1639 513 c 0,94,95
 1634 513 1634 513 1634 510 c 0,96,97
 1622 450 1622 450 1584 376.5 c 128,-1,98
 1546 303 1546 303 1495 247 c 1,14,-1
EndSplineSet
Validated: 1
EndChar

StartChar: u10CE2
Encoding: 102 68834 103
Width: 1544
GlyphClass: 2
Flags: W
LayerCount: 2
Fore
SplineSet
1203 -7 m 1,0,-1
 1203 683 l 1,1,-1
 441 339 l 1,2,-1
 441 -7 l 1,3,-1
 250 -7 l 1,4,-1
 250 1120 l 1,5,-1
 441 1120 l 1,6,-1
 441 467 l 1,7,-1
 1203 811 l 1,8,-1
 1203 1120 l 1,9,-1
 1394 1120 l 1,10,-1
 1394 -7 l 1,11,-1
 1203 -7 l 1,0,-1
EndSplineSet
Validated: 1
EndChar

StartChar: u10CE3
Encoding: 103 68835 104
Width: 1162
GlyphClass: 2
Flags: W
LayerCount: 2
Fore
SplineSet
1012 813 m 1,0,-1
 1012 688 l 1,1,-1
 250 344 l 1,2,-1
 250 469 l 1,3,-1
 1012 813 l 1,0,-1
EndSplineSet
Validated: 1
EndChar

StartChar: u10CE4
Encoding: 104 68836 105
Width: 1478
GlyphClass: 2
Flags: W
LayerCount: 2
Fore
SplineSet
1059 437 m 1,0,-1
 874 814 l 2,1,2
 850 860 850 860 818 938 c 2,3,-1
 791 1005 l 1,4,-1
 782 982 l 2,5,6
 752 904 752 904 708 812 c 2,7,-1
 468 322 l 1,8,-1
 308 -7 l 1,9,-1
 110 -7 l 1,10,-1
 685 1120 l 1,11,-1
 902 1120 l 1,12,-1
 1468 -7 l 1,13,-1
 1273 -7 l 1,14,-1
 1059 437 l 1,0,-1
EndSplineSet
Validated: 1
EndChar

StartChar: u10CE5
Encoding: 105 68837 106
Width: 591
GlyphClass: 2
Flags: W
LayerCount: 2
Fore
SplineSet
250 -7 m 1,0,-1
 250 1120 l 1,1,-1
 441 1120 l 1,2,-1
 441 -7 l 1,3,-1
 250 -7 l 1,0,-1
EndSplineSet
Validated: 1
EndChar

StartChar: u10CE6
Encoding: 106 68838 107
Width: 1063
GlyphClass: 2
Flags: W
LayerCount: 2
Fore
SplineSet
582 787 m 1,0,-1
 582 1120 l 1,1,-1
 773 1120 l 1,2,-1
 773 -7 l 1,3,-1
 582 -7 l 1,4,-1
 582 618 l 1,5,-1
 110 1117 l 1,6,-1
 281 1116 l 1,7,-1
 582 787 l 1,0,-1
EndSplineSet
Validated: 1
EndChar

StartChar: u10CE7
Encoding: 107 68839 108
Width: 1876
GlyphClass: 2
Flags: W
LayerCount: 2
Fore
SplineSet
422 766 m 1,0,-1
 250 766 l 1,1,-1
 582 1122 l 1,2,-1
 898 796 l 1,3,-1
 897 1126 l 1,4,-1
 1088 1126 l 1,5,-1
 1089 796 l 1,6,-1
 1403 1122 l 1,7,-1
 1726 763 l 1,8,-1
 1554 763 l 1,9,-1
 1402 935 l 1,10,-1
 1087 651 l 1,11,-1
 1096 -1 l 1,12,-1
 905 -1 l 1,13,-1
 896 651 l 1,14,-1
 583 927 l 1,15,-1
 422 766 l 1,0,-1
EndSplineSet
Validated: 1
EndChar

StartChar: u10CE8
Encoding: 108 68840 109
Width: 1357
GlyphClass: 2
Flags: W
LayerCount: 2
Fore
SplineSet
908 301 m 1,0,-1
 743 486 l 1,1,-1
 301 -7 l 1,2,-1
 110 -7 l 1,3,-1
 626 579 l 1,4,-1
 151 1120 l 1,5,-1
 342 1120 l 1,6,-1
 491 956 l 1,7,-1
 638 1124 l 1,8,-1
 829 1124 l 1,9,-1
 587 850 l 1,10,-1
 734 678 l 1,11,-1
 1115 1120 l 1,12,-1
 1306 1120 l 1,13,-1
 844 584 l 1,14,-1
 1347 -7 l 1,15,-1
 1156 -7 l 1,16,-1
 998 178 l 1,17,-1
 834 -4 l 1,18,-1
 643 -4 l 1,19,-1
 908 301 l 1,0,-1
EndSplineSet
Validated: 1
EndChar

StartChar: u10CE9
Encoding: 109 68841 110
Width: 1397
GlyphClass: 2
Flags: W
LayerCount: 2
Fore
SplineSet
1074 130 m 1,0,-1
 753 486 l 1,1,-1
 321 -7 l 1,2,-1
 110 -7 l 1,3,-1
 646 578 l 1,4,-1
 151 1120 l 1,5,-1
 362 1120 l 1,6,-1
 754 678 l 1,7,-1
 1015 981 l 1,8,-1
 748 926 l 1,9,-1
 745 1048 l 1,10,-1
 1135 1120 l 1,11,-1
 1346 1120 l 1,12,-1
 864 584 l 1,13,-1
 1387 -7 l 1,14,-1
 1176 -7 l 1,15,-1
 773 66 l 1,16,-1
 774 190 l 1,17,-1
 1074 130 l 1,0,-1
EndSplineSet
Validated: 1
EndChar

StartChar: u10CEA
Encoding: 110 68842 111
Width: 1592
GlyphClass: 2
Flags: W
LayerCount: 2
Fore
SplineSet
440 159 m 1,0,-1
 840 439 l 1,1,-1
 1247 156 l 1,2,-1
 1242 956 l 1,3,-1
 843 665 l 1,4,-1
 440 959 l 1,5,-1
 440 159 l 1,0,-1
250 -5 m 1,6,-1
 250 1122 l 1,7,-1
 442 1122 l 1,8,-1
 843 828 l 1,9,-1
 1250 1120 l 1,10,-1
 1442 1122 l 1,11,-1
 1442 -5 l 1,12,-1
 1250 -8 l 1,13,-1
 843 292 l 1,14,-1
 442 -5 l 1,15,-1
 250 -5 l 1,6,-1
EndSplineSet
Validated: 1
EndChar

StartChar: u10CEB
Encoding: 111 68843 112
Width: 1676
GlyphClass: 2
Flags: W
LayerCount: 2
Fore
SplineSet
436 925 m 1,0,-1
 441 173 l 1,1,-1
 778 553 l 1,2,-1
 436 925 l 1,0,-1
963 553 m 1,3,-1
 1329 181 l 1,4,-1
 1329 929 l 1,5,-1
 963 553 l 1,3,-1
250 -7 m 1,6,-1
 250 1121 l 1,7,-1
 442 1121 l 1,8,-1
 866 639 l 1,9,-1
 1334 1124 l 1,10,-1
 1526 1125 l 1,11,-1
 1526 -7 l 1,12,-1
 1334 -7 l 1,13,-1
 866 471 l 1,14,-1
 443 -7 l 1,15,-1
 250 -7 l 1,6,-1
EndSplineSet
Validated: 1
EndChar

StartChar: u10CEC
Encoding: 112 68844 113
Width: 1758
GlyphClass: 2
Flags: W
LayerCount: 2
Fore
SplineSet
1262 926 m 1,0,-1
 1480 1100 l 1,1,-1
 1593 1002 l 1,2,-1
 1352 816 l 1,3,4
 1449 669 1449 669 1449 549 c 0,5,6
 1449 416 1449 416 1386 316 c 1,7,-1
 1608 111 l 1,8,-1
 1475 0 l 1,9,-1
 1278 199 l 1,10,11
 1187 98 1187 98 1055 0 c 1,12,-1
 786 -1 l 1,13,14
 793 4 793 4 796 4 c 1,15,-1
 778 4 l 1,16,17
 648 100 648 100 563 192 c 1,18,-1
 374 1 l 1,19,-1
 261 106 l 1,20,-1
 483 308 l 1,21,22
 481 312 481 312 462 342.5 c 128,-1,23
 443 373 443 373 438.5 381.5 c 128,-1,24
 434 390 434 390 420.5 417 c 128,-1,25
 407 444 407 444 402.5 460 c 128,-1,26
 398 476 398 476 393 501 c 128,-1,27
 388 526 388 526 388 550 c 0,28,29
 388 596 388 596 405 647 c 128,-1,30
 422 698 422 698 435 721.5 c 128,-1,31
 448 745 448 745 480 799 c 1,32,-1
 250 1016 l 1,33,-1
 374 1104 l 1,34,-1
 560 926 l 1,35,36
 629 1005 629 1005 792 1126 c 1,37,-1
 1044 1126 l 1,38,39
 1039 1121 1039 1121 1037 1121 c 1,40,-1
 1040 1121 l 1,41,42
 1171 1024 1171 1024 1262 926 c 1,0,-1
920 144 m 1,43,44
 1091 262 1091 262 1174.5 354.5 c 128,-1,45
 1258 447 1258 447 1258 548 c 0,46,47
 1258 651 1258 651 1170.5 753 c 128,-1,48
 1083 855 1083 855 912 976 c 1,49,50
 747 858 747 858 663 757 c 128,-1,51
 579 656 579 656 579 553.5 c 128,-1,52
 579 451 579 451 663 356.5 c 128,-1,53
 747 262 747 262 920 144 c 1,43,44
EndSplineSet
Validated: 1
EndChar

StartChar: u10CED
Encoding: 113 68845 114
Width: 1208
GlyphClass: 2
Flags: W
LayerCount: 2
Fore
SplineSet
1058 -1 m 1,0,-1
 866 -1 l 1,1,-1
 863 565 l 1,2,-1
 250 334 l 1,3,-1
 250 1121 l 1,4,-1
 442 1121 l 1,5,-1
 442 543 l 1,6,-1
 1058 771 l 1,7,-1
 1058 -1 l 1,0,-1
EndSplineSet
Validated: 1
EndChar

StartChar: u10CEE
Encoding: 114 68846 115
Width: 1544
GlyphClass: 2
Flags: W
LayerCount: 2
Fore
SplineSet
441 1120 m 1,0,-1
 800 814 l 1,1,-1
 1203 1115 l 1,2,-1
 1394 1120 l 1,3,-1
 1394 -7 l 1,4,-1
 1203 -7 l 1,5,-1
 1203 944 l 1,6,-1
 804 653 l 1,7,-1
 441 949 l 1,8,-1
 441 -7 l 1,9,-1
 250 -7 l 1,10,-1
 250 1120 l 1,11,-1
 441 1120 l 1,0,-1
EndSplineSet
Validated: 1
EndChar

StartChar: u10CEF
Encoding: 115 68847 116
Width: 1544
GlyphClass: 2
Flags: W
LayerCount: 2
Fore
SplineSet
1203 813 m 1,0,-1
 1203 955 l 1,1,-1
 441 606 l 1,2,-1
 441 466 l 1,3,-1
 1203 813 l 1,0,-1
1203 683 m 1,4,-1
 441 338 l 1,5,-1
 441 155 l 1,6,-1
 1203 499 l 1,7,-1
 1203 683 l 1,4,-1
1203 1120 m 1,8,-1
 1394 1120 l 1,9,-1
 1394 -7 l 1,10,-1
 1203 -7 l 1,11,-1
 1203 371 l 1,12,-1
 441 27 l 1,13,-1
 441 -7 l 1,14,-1
 250 -7 l 1,15,-1
 250 1120 l 1,16,-1
 441 1120 l 1,17,-1
 441 742 l 1,18,-1
 1200 1084 l 1,19,-1
 1203 1120 l 1,8,-1
EndSplineSet
Validated: 1
EndChar

StartChar: u10CF0
Encoding: 116 68848 117
Width: 1536
GlyphClass: 2
Flags: W
LayerCount: 2
Fore
SplineSet
913 1120 m 1,0,-1
 914 827 l 1,1,-1
 1215 1116 l 1,2,-1
 1386 1117 l 1,3,-1
 913 669 l 1,4,-1
 913 -7 l 1,5,-1
 722 -7 l 1,6,-1
 722 674 l 1,7,-1
 250 1117 l 1,8,-1
 421 1116 l 1,9,-1
 722 827 l 1,10,-1
 722 1120 l 1,11,-1
 913 1120 l 1,0,-1
EndSplineSet
Validated: 1
EndChar

StartChar: u10CF1
Encoding: 117 68849 118
Width: 1876
GlyphClass: 2
Flags: W
LayerCount: 2
Fore
SplineSet
896 -6 m 1,0,-1
 583 270 l 1,1,-1
 422 149 l 1,2,-1
 250 149 l 1,3,-1
 582 425 l 1,4,-1
 898 140 l 1,5,-1
 896 378 l 1,6,-1
 583 614 l 1,7,-1
 422 493 l 1,8,-1
 250 493 l 1,9,-1
 582 769 l 1,10,-1
 898 524 l 1,11,-1
 896 730 l 1,12,-1
 583 970 l 1,13,-1
 422 841 l 1,14,-1
 250 841 l 1,15,-1
 582 1117 l 1,16,-1
 898 872 l 1,17,-1
 897 1121 l 1,18,-1
 1088 1121 l 1,19,-1
 1085 872 l 1,20,-1
 1403 1117 l 1,21,-1
 1726 838 l 1,22,-1
 1554 838 l 1,23,-1
 1402 978 l 1,24,-1
 1087 730 l 1,25,-1
 1079 524 l 1,26,-1
 1403 769 l 1,27,-1
 1726 490 l 1,28,-1
 1554 490 l 1,29,-1
 1402 622 l 1,30,-1
 1077 378 l 1,31,-1
 1079 140 l 1,32,-1
 1403 425 l 1,33,-1
 1726 146 l 1,34,-1
 1554 146 l 1,35,-1
 1402 278 l 1,36,-1
 1087 -6 l 1,37,-1
 896 -6 l 1,0,-1
EndSplineSet
Validated: 1
EndChar

StartChar: u10CF2
Encoding: 118 68850 119
Width: 1596
GlyphClass: 2
Flags: W
LayerCount: 2
Fore
SplineSet
937 156 m 1,0,1
 1051 247 1051 247 1153 371 c 128,-1,2
 1255 495 1255 495 1255 555 c 0,3,4
 1255 630 1255 630 1159 755.5 c 128,-1,5
 1063 881 1063 881 935 969 c 1,6,-1
 937 156 l 1,0,1
751 160 m 1,7,-1
 754 969 l 1,8,9
 631 879 631 879 535.5 753.5 c 128,-1,10
 440 628 440 628 440 557 c 0,11,12
 440 500 440 500 541.5 374.5 c 128,-1,13
 643 249 643 249 751 160 c 1,7,-1
768 -2 m 1,14,15
 498 152 498 152 374 285 c 128,-1,16
 250 418 250 418 250 565 c 0,17,18
 250 711 250 711 370 843 c 128,-1,19
 490 975 490 975 749 1125 c 1,20,-1
 933 1125 l 1,21,22
 1202 974 1202 974 1324 839 c 128,-1,23
 1446 704 1446 704 1446 556 c 128,-1,24
 1446 408 1446 408 1325.5 277.5 c 128,-1,25
 1205 147 1205 147 936 -2 c 1,26,-1
 768 -2 l 1,14,15
EndSplineSet
Validated: 1
EndChar

StartChar: u10CFA
Encoding: 119 68858 120
Width: 491
GlyphClass: 2
Flags: W
LayerCount: 2
Fore
SplineSet
150 0 m 1,0,-1
 150 1409 l 1,1,-1
 341 1409 l 1,2,-1
 341 0 l 1,3,-1
 150 0 l 1,0,-1
EndSplineSet
Validated: 1
EndChar

StartChar: u10CFB
Encoding: 120 68859 121
Width: 1388
GlyphClass: 2
Flags: W
LayerCount: 2
Fore
SplineSet
793 0 m 1,0,-1
 595 0 l 1,1,-1
 20 1409 l 1,2,-1
 221 1409 l 1,3,-1
 611 417 l 1,4,-1
 695 168 l 1,5,-1
 779 417 l 1,6,-1
 1167 1409 l 1,7,-1
 1368 1409 l 1,8,-1
 793 0 l 1,0,-1
EndSplineSet
Validated: 1
EndChar

StartChar: u10CFC
Encoding: 121 68860 122
Width: 1577
GlyphClass: 2
Flags: W
LayerCount: 2
Fore
SplineSet
1216 0 m 1,0,-1
 793 616 l 1,1,-1
 361 0 l 1,2,-1
 150 0 l 1,3,-1
 686 732 l 1,4,-1
 191 1409 l 1,5,-1
 402 1409 l 1,6,-1
 794 856 l 1,7,-1
 1175 1409 l 1,8,-1
 1386 1409 l 1,9,-1
 904 739 l 1,10,-1
 1427 0 l 1,11,-1
 1216 0 l 1,0,-1
EndSplineSet
Validated: 1
EndChar

StartChar: u10CFD
Encoding: 122 68861 123
Width: 1388
GlyphClass: 2
Flags: W
LayerCount: 2
Fore
SplineSet
791 420 m 1,0,-1
 1167 1409 l 1,1,-1
 1368 1409 l 1,2,-1
 793 0 l 1,3,-1
 595 0 l 1,4,-1
 20 1409 l 1,5,-1
 221 1409 l 1,6,-1
 606 423 l 1,7,-1
 600 1409 l 1,8,-1
 791 1409 l 1,9,-1
 791 420 l 1,0,-1
EndSplineSet
Validated: 1
EndChar

StartChar: u10CFE
Encoding: 123 68862 124
Width: 1577
GlyphClass: 2
Flags: W
LayerCount: 2
Fore
SplineSet
890 471 m 1,0,-1
 889 0 l 1,1,-1
 698 0 l 1,2,-1
 696 471 l 1,3,-1
 361 0 l 1,4,-1
 150 0 l 1,5,-1
 686 732 l 1,6,-1
 191 1409 l 1,7,-1
 402 1409 l 1,8,-1
 697 993 l 1,9,-1
 698 1409 l 1,10,-1
 889 1409 l 1,11,-1
 891 993 l 1,12,-1
 1175 1409 l 1,13,-1
 1386 1409 l 1,14,-1
 904 739 l 1,15,-1
 1427 0 l 1,16,-1
 1216 0 l 1,17,-1
 890 471 l 1,0,-1
EndSplineSet
Validated: 1
EndChar

StartChar: u10CFF
Encoding: 124 68863 125
Width: 1577
GlyphClass: 2
Flags: W
LayerCount: 2
Fore
SplineSet
948 661 m 1,0,-1
 1427 0 l 1,1,-1
 1216 0 l 1,2,-1
 890 471 l 1,3,-1
 889 0 l 1,4,-1
 698 0 l 1,5,-1
 696 471 l 1,6,-1
 361 0 l 1,7,-1
 150 0 l 1,8,-1
 631 651 l 1,9,-1
 196 645 l 1,10,-1
 198 807 l 1,11,-1
 631 807 l 1,12,-1
 191 1409 l 1,13,-1
 402 1409 l 1,14,-1
 697 993 l 1,15,-1
 698 1409 l 1,16,-1
 889 1409 l 1,17,-1
 891 993 l 1,18,-1
 1175 1409 l 1,19,-1
 1386 1409 l 1,20,-1
 954 823 l 1,21,-1
 1381 825 l 1,22,-1
 1381 663 l 1,23,-1
 948 661 l 1,0,-1
EndSplineSet
Validated: 1
EndChar

StartChar: u10C82_10C80
Encoding: 126 -1 126
Width: 1384
Flags: W
LayerCount: 2
Fore
SplineSet
375.834960938 1093 m 1,0,1
 316 1180 316 1180 256 1267 c 1,2,3
 256 1267 256 1267 170 938 c 1,4,5
 273 1016 273 1016 375.834960938 1093 c 1,0,1
633 732 m 9,6,-1
 453 992 l 21,7,-1
 81 750 l 5,8,-1
 10 845 l 1,9,-1
 159 1407 l 1,10,-1
 349 1409 l 1,11,12
 349 1409 349 1409 741 856 c 1,13,-1
 1122 1409 l 1,14,-1
 1333 1409 l 1,15,-1
 851 739 l 1,16,-1
 1374 0 l 1,17,-1
 1163 0 l 1,18,-1
 740 616 l 1,19,-1
 308 0 l 1,20,-1
 97 0 l 1,21,-1
 633 732 l 9,6,-1
EndSplineSet
Validated: 1
Ligature2: "'dlig' Discretionary Ligatures in Old Hungarian lookup 0-1" u10C82 u10C80
Ligature2: "'liga' Standard Ligatures in Old Hungarian lookup 0 subtable" u10C82 uni200D u10C80
EndChar

StartChar: u10CC2_10CC0
Encoding: 127 -1 127
Width: 1397
Flags: W
LayerCount: 2
Fore
SplineSet
226 1120 m 9,0,-1
 362 1120 l 17,1,2
 362 1120 362 1120 754 678 c 1,3,-1
 1135 1120 l 1,4,-1
 1346 1120 l 1,5,-1
 864 584 l 1,6,-1
 1387 -7 l 1,7,-1
 1176 -7 l 1,8,-1
 753 486 l 1,9,-1
 321 -7 l 1,10,-1
 110 -7 l 1,11,-1
 646 578 l 1,12,13
 561 679 561 679 476.745117188 780 c 1,14,15
 476.745117188 780 476.745117188 780 189 554 c 1,16,-1
 108 640 l 1,17,-1
 226 1120 l 9,0,-1
412.627929688 845 m 1,18,19
 303.372070312 969 303.372070312 969 303.372070312 969 c 129,-1,20
 303.372070312 969 303.372070312 969 212 675 c 1,21,-1
 412.627929688 845 l 1,18,19
EndSplineSet
Validated: 1
Ligature2: "'liga' Standard Ligatures in Old Hungarian lookup 0 subtable" u10CC2 uni200D u10CC0
Ligature2: "'dlig' Discretionary Ligatures in Old Hungarian lookup 0-1" u10CC2 u10CC0
EndChar

StartChar: u10C82_10C81
Encoding: 128 -1 128
Width: 1384
Flags: W
LayerCount: 2
Fore
SplineSet
495.834960938 923 m 1,0,1
 381 1095 381 1095 266 1267 c 1,2,3
 266 1267 266 1267 160 968 c 1,4,5
 328 946 328 946 495.834960938 923 c 1,0,1
633 732 m 9,6,-1
 583 802 l 17,7,-1
 51 851 l 1,8,-1
 10 935 l 1,9,-1
 159 1407 l 1,10,-1
 349 1409 l 1,11,12
 349 1409 349 1409 741 856 c 1,13,-1
 1122 1409 l 1,14,-1
 1333 1409 l 1,15,-1
 851 739 l 1,16,-1
 1374 0 l 1,17,-1
 1163 0 l 1,18,-1
 740 616 l 1,19,-1
 308 0 l 1,20,-1
 97 0 l 1,21,-1
 633 732 l 9,6,-1
EndSplineSet
Validated: 524289
Ligature2: "'liga' Standard Ligatures in Old Hungarian lookup 0 subtable" u10C82 uni200D u10C81
Ligature2: "'dlig' Discretionary Ligatures in Old Hungarian lookup 0-1" u10C82 u10C81
EndChar

StartChar: u10CC2_10CC1
Encoding: 129 -1 129
Width: 1397
Flags: W
LayerCount: 2
Fore
SplineSet
226 1120 m 9,0,-1
 362 1120 l 17,1,2
 362 1120 362 1120 754 678 c 1,3,-1
 1135 1120 l 1,4,-1
 1346 1120 l 1,5,-1
 864 584 l 1,6,-1
 1387 -7 l 1,7,-1
 1176 -7 l 1,8,-1
 753 486 l 1,9,-1
 321 -7 l 1,10,-1
 110 -7 l 1,11,-1
 646 578 l 1,12,13
 616 614 616 614 586.745117188 650 c 1,14,15
 586.745117188 650 586.745117188 650 129 564 c 1,16,-1
 68 670 l 1,17,-1
 226 1120 l 9,0,-1
502.627929688 735 m 1,18,19
 400 852 400 852 298.372070312 969 c 1,20,21
 255 832 255 832 212 695 c 1,22,-1
 502.627929688 735 l 1,18,19
EndSplineSet
Validated: 1
Ligature2: "'liga' Standard Ligatures in Old Hungarian lookup 0 subtable" u10CC2 uni200D u10CC0
Ligature2: "'dlig' Discretionary Ligatures in Old Hungarian lookup 0-1" u10CC2 u10CC0
EndChar

StartChar: u10C80_10C84
Encoding: 130 -1 130
Width: 1819
Flags: W
LayerCount: 2
Fore
SplineSet
626 781 m 1,0,-1
 626 1167 l 1,1,-1
 350 778 l 1,2,-1
 626 781 l 1,0,-1
822 1087.625 m 9,3,4
 822 1087.625 822 1087.625 817.502929688 987 c 1,5,6
 817.502929688 987 817.502929688 987 814 0 c 1,7,-1
 623 0 l 1,8,-1
 622 629 l 1,9,-1
 151 627 l 1,10,-1
 150 772 l 1,11,-1
 628 1409 l 1,12,-1
 819 1409 l 1,13,-1
 818.641601562 1258 l 1,14,15
 818.641601562 1258 818.641601562 1258 993 1409 c 1,16,-1
 1184 1410 l 1,17,-1
 1669 994 l 1,18,-1
 1443 994 l 1,19,-1
 1184 1230 l 1,20,-1
 1184 0 l 1,21,-1
 993 0 l 1,22,-1
 993 1229 l 1,23,-1
 822 1087.625 l 9,3,4
EndSplineSet
Validated: 524289
LCarets2: 2 0 0
Ligature2: "'dlig' Discretionary Ligatures in Old Hungarian lookup 0-1" u10C80 u10C84
Ligature2: "'liga' Standard Ligatures in Old Hungarian lookup 0 subtable" u10C80 uni200D u10C84
EndChar

StartChar: u10C81_10C84
Encoding: 132 -1 131
Width: 1819
Flags: W
LayerCount: 2
Fore
SplineSet
626 511 m 1,0,-1
 626 1167 l 1,1,-1
 290 728 l 1,2,-1
 626 511 l 1,0,-1
822 1067.625 m 9,3,4
 822 1067.625 822 1067.625 814 0 c 17,5,-1
 623 0 l 1,6,-1
 622 329 l 1,7,-1
 151 627 l 1,8,-1
 150 772 l 1,9,-1
 628 1409 l 1,10,-1
 819 1409 l 1,11,-1
 818.641601562 1258 l 1,12,13
 818.641601562 1258 818.641601562 1258 993 1409 c 1,14,-1
 1184 1410 l 1,15,-1
 1669 994 l 1,16,-1
 1443 994 l 1,17,-1
 1184 1230 l 1,18,-1
 1184 0 l 1,19,-1
 993 0 l 1,20,-1
 993 1229 l 1,21,-1
 822 1067.625 l 9,3,4
EndSplineSet
Validated: 524289
LCarets2: 2 0 0
Ligature2: "'dlig' Discretionary Ligatures in Old Hungarian lookup 0-1" u10C81 u10C84
Ligature2: "'liga' Standard Ligatures in Old Hungarian lookup 0 subtable" u10C81 uni200D u10C84
EndChar

StartChar: u10CC0_10CC4
Encoding: 131 -1 132
Width: 1819
Flags: W
LayerCount: 2
Fore
SplineSet
616 618 m 5,0,-1
 616 916 l 5,1,-1
 320 615 l 5,2,-1
 616 618 l 5,0,-1
804 -7 m 21,3,-1
 613 -7 l 5,4,-1
 612 496 l 5,5,-1
 151 494 l 5,6,-1
 150 610 l 5,7,-1
 618 1120 l 5,8,-1
 809 1120 l 5,9,-1
 808 972.08203125 l 5,10,11
 808 972.08203125 808 972.08203125 993 1120 c 5,12,-1
 1184 1121 l 5,13,-1
 1669 788 l 5,14,-1
 1443 788 l 5,15,-1
 1184 977 l 5,16,-1
 1184 -7 l 5,17,-1
 993 -7 l 5,18,-1
 993 976 l 5,19,-1
 806 828.3515625 l 13,20,21
 806 828.3515625 806 828.3515625 804 -7 c 21,3,-1
EndSplineSet
LCarets2: 2 0 0
Ligature2: "'liga' Standard Ligatures in Old Hungarian lookup 0 subtable" u10CC0 uni200D u10CC4
Ligature2: "'dlig' Discretionary Ligatures in Old Hungarian lookup 0-1" u10CC0 u10CC4
EndChar

StartChar: u10CC1_10CC4
Encoding: 133 -1 133
Width: 1819
Flags: WO
LayerCount: 2
Fore
SplineSet
616 428 m 1,0,-1
 616 916 l 1,1,-1
 320 585 l 1,2,-1
 616 428 l 1,0,-1
805.633789062 -6 m 1,3,4
 613 -7 613 -7 613 -7 c 1,5,-1
 612 276 l 1,6,-1
 151 494 l 1,7,-1
 150 610 l 1,8,-1
 618 1120 l 1,9,-1
 809 1120 l 1,10,-1
 808 972.08203125 l 1,11,12
 808 972.08203125 808 972.08203125 993 1120 c 1,13,-1
 1184 1121 l 1,14,-1
 1669 788 l 1,15,-1
 1443 788 l 1,16,-1
 1184 977 l 1,17,-1
 1184 -7 l 1,18,-1
 993 -7 l 1,19,-1
 993 976 l 1,20,-1
 806 828.3515625 l 1,21,22
 806 170 806 170 805.633789062 -6 c 1,3,4
EndSplineSet
LCarets2: 2 0 0
Ligature2: "'liga' Standard Ligatures in Old Hungarian lookup 0 subtable" u10CC1 uni200D u10CC4
Ligature2: "'dlig' Discretionary Ligatures in Old Hungarian lookup 0-1" u10CC1 u10CC4
EndChar
